<?xml version="1.0" standalone="no"?>
<!DOCTYPE svg PUBLIC "-//W3C//DTD SVG 1.1//EN" "http://www.w3.org/Graphics/SVG/1.1/DTD/svg11.dtd" >
<svg xmlns="http://www.w3.org/2000/svg" xmlns:xlink="http://www.w3.org/1999/xlink" version="1.1">
<metadata>
Created by FontForge 20160405 at Mon Dec 12 16:45:57 2016
 By www-data
Part of the Neutraface 2 collection from House Industries.
</metadata>
<defs>
<font id="Neutraface2Display-Bold" horiz-adv-x="184" >
  <font-face 
    font-family="Neutraface 2 Display Bold"
    font-weight="700"
    font-stretch="normal"
    units-per-em="1000"
    panose-1="2 0 8 3 4 0 0 2 0 4"
    ascent="780"
    descent="-220"
    x-height="342"
    cap-height="680"
    bbox="-63 -251 1125 900"
    underline-thickness="20"
    underline-position="-133"
    stemh="95"
    stemv="105"
    unicode-range="U+0020-FB04"
  />
<missing-glyph horiz-adv-x="182" 
 />
    <glyph glyph-name="fi" unicode="fi" horiz-adv-x="404" 
d="M312 436c-33 0 -63 27 -63 63s30 63 63 63c34 0 63 -27 63 -63s-29 -63 -63 -63zM159 259v-259h-100v259h-40v83h40v248c0 85 44 128 115 128c48 0 76 -15 97 -39l-56 -63c-6 8 -16 14 -31 14c-13 0 -25 -9 -25 -39v-249h203v-342h-100v259h-103z" />
    <glyph glyph-name="fl" unicode="fl" horiz-adv-x="404" 
d="M159 259v-259h-100v259h-40v83h40v249c0 83 41 127 115 127c28 0 51 -6 68 -19l-28 -77c-6 4 -13 8 -28 8s-27 -11 -27 -38v-250h63v-83h-63zM262 0v710h100v-710h-100z" />
    <glyph glyph-name="ff" unicode="ff" horiz-adv-x="468" 
d="M367 259v-259h-100v259h-108v-259h-100v259h-40v83h40v249c0 86 45 127 110 127c41 0 65 -10 85 -24l-42 -74c-7 6 -14 10 -28 10c-13 0 -25 -10 -25 -38v-250h108v248c0 85 44 128 115 128c48 0 76 -15 97 -39l-56 -63c-6 8 -16 14 -31 14c-13 0 -25 -9 -25 -39v-249h82
v-83h-82z" />
    <glyph glyph-name="ffi" unicode="ffi" horiz-adv-x="617" 
d="M525 436c-33 0 -63 27 -63 63s30 63 63 63c34 0 63 -27 63 -63s-29 -63 -63 -63zM367 259v-259h-100v259h-108v-259h-100v259h-40v83h40v249c0 86 45 127 110 127c41 0 65 -10 85 -24l-42 -74c-7 6 -14 10 -28 10c-13 0 -25 -10 -25 -38v-250h108v248
c0 85 44 128 115 128c48 0 76 -15 97 -39l-56 -63c-6 8 -16 14 -31 14c-13 0 -25 -9 -25 -39v-249h208v-342h-100v259h-108z" />
    <glyph glyph-name="ffl" unicode="ffl" horiz-adv-x="612" 
d="M367 259v-259h-100v259h-108v-259h-100v259h-40v83h40v249c0 86 45 127 110 127c41 0 65 -10 85 -24l-42 -74c-7 6 -14 10 -28 10c-13 0 -25 -10 -25 -38v-250h108v249c0 83 41 127 115 127c28 0 51 -6 68 -19l-28 -77c-6 4 -13 8 -28 8s-27 -11 -27 -38v-250h63v-83h-63
zM470 0v710h100v-710h-100z" />
    <glyph glyph-name="f_b" unicode="fb" horiz-adv-x="655" 
d="M159 259v-259h-100v259h-40v83h40v249c0 83 41 127 115 127c28 0 51 -6 68 -19l-28 -77c-6 4 -13 8 -28 8s-27 -11 -27 -38v-250h63v-83h-63zM468 -9c-52 0 -87 18 -106 48v-39h-100v710h100v-407c19 30 54 48 106 48c89 0 161 -76 161 -180s-72 -180 -161 -180zM442 79
c51 0 84 36 84 92s-33 92 -84 92s-82 -36 -82 -92s31 -92 82 -92z" />
    <glyph glyph-name="f_f_b" unicode="ffb" horiz-adv-x="863" 
d="M367 259v-259h-100v259h-108v-259h-100v259h-40v83h40v249c0 86 45 127 110 127c41 0 65 -10 85 -24l-42 -74c-7 6 -14 10 -28 10c-13 0 -25 -10 -25 -38v-250h108v249c0 83 41 127 115 127c28 0 51 -6 68 -19l-28 -77c-6 4 -13 8 -28 8s-27 -11 -27 -38v-250h63v-83h-63
zM676 -9c-52 0 -87 18 -106 48v-39h-100v710h100v-407c19 30 54 48 106 48c89 0 161 -76 161 -180s-72 -180 -161 -180zM650 79c51 0 84 36 84 92s-33 92 -84 92s-82 -36 -82 -92s31 -92 82 -92z" />
    <glyph glyph-name="f_f_f" unicode="fff" horiz-adv-x="676" 
d="M475 342v248c0 85 44 128 115 128c48 0 76 -15 97 -39l-56 -63c-6 8 -16 14 -31 14c-13 0 -25 -9 -25 -39v-249h82v-83h-82v-259h-100v259h-108v-259h-100v259h-108v-259h-100v259h-40v83h40v249c0 86 45 127 110 127c41 0 65 -10 85 -24l-42 -74c-7 6 -14 10 -28 10
c-13 0 -25 -10 -25 -38v-250h108v249c0 86 45 127 110 127c41 0 65 -10 85 -24l-42 -74c-7 6 -14 10 -28 10c-13 0 -25 -10 -25 -38v-250h108z" />
    <glyph glyph-name="f_f_h" unicode="ffh" horiz-adv-x="843" 
d="M367 259v-259h-100v259h-108v-259h-100v259h-40v83h40v249c0 86 45 127 110 127c41 0 65 -10 85 -24l-42 -74c-7 6 -14 10 -28 10c-13 0 -25 -10 -25 -38v-250h108v249c0 83 41 127 115 127c28 0 51 -6 68 -19l-28 -77c-6 4 -13 8 -28 8s-27 -11 -27 -38v-250h63v-83h-63
zM470 0v710h100v-412c22 36 59 53 107 53c76 0 129 -53 129 -144v-207h-100v200c0 38 -20 61 -61 61c-48 0 -75 -26 -75 -77v-184h-100z" />
    <glyph glyph-name="f_f_j" unicode="ffj" horiz-adv-x="617" 
d="M525 436c-33 0 -63 27 -63 63s30 63 63 63c34 0 63 -27 63 -63s-29 -63 -63 -63zM367 259v-259h-100v259h-108v-259h-100v259h-40v83h40v249c0 86 45 127 110 127c41 0 65 -10 85 -24l-42 -74c-7 6 -14 10 -28 10c-13 0 -25 -10 -25 -38v-250h108v248
c0 85 44 128 115 128c48 0 76 -15 97 -39l-56 -63c-6 8 -16 14 -31 14c-13 0 -25 -9 -25 -39v-249h208v-444c0 -77 -40 -120 -110 -120c-48 0 -76 17 -95 38l49 61c8 -7 18 -13 29 -13c17 0 27 9 27 31v364h-108z" />
    <glyph glyph-name="f_f_k" unicode="ffk" horiz-adv-x="819" 
d="M367 259v-259h-100v259h-108v-259h-100v259h-40v83h40v249c0 86 45 127 110 127c41 0 65 -10 85 -24l-42 -74c-7 6 -14 10 -28 10c-13 0 -25 -10 -25 -38v-250h108v249c0 83 41 127 115 127c28 0 51 -6 68 -19l-28 -77c-6 4 -13 8 -28 8s-27 -11 -27 -38v-250h63v-83h-63
zM570 82v-82h-100v710h100v-501l112 133h116l-122 -140l136 -202h-119l-84 126z" />
    <glyph glyph-name="f_h" unicode="fh" horiz-adv-x="635" 
d="M159 259v-259h-100v259h-40v83h40v249c0 83 41 127 115 127c28 0 51 -6 68 -19l-28 -77c-6 4 -13 8 -28 8s-27 -11 -27 -38v-250h63v-83h-63zM262 0v710h100v-412c22 36 59 53 107 53c76 0 129 -53 129 -144v-207h-100v200c0 38 -20 61 -61 61c-48 0 -75 -26 -75 -77
v-184h-100z" />
    <glyph glyph-name="f_j" unicode="fj" horiz-adv-x="404" 
d="M312 436c-33 0 -63 27 -63 63s30 63 63 63c34 0 63 -27 63 -63s-29 -63 -63 -63zM159 259v-259h-100v259h-40v83h40v248c0 85 44 128 115 128c48 0 76 -15 97 -39l-56 -63c-6 8 -16 14 -31 14c-13 0 -25 -9 -25 -39v-249h203v-444c0 -77 -40 -120 -110 -120
c-48 0 -76 17 -95 38l49 61c8 -7 18 -13 29 -13c17 0 27 9 27 31v364h-103z" />
    <glyph glyph-name="f_k" unicode="fk" horiz-adv-x="611" 
d="M159 259v-259h-100v259h-40v83h40v249c0 83 41 127 115 127c28 0 51 -6 68 -19l-28 -77c-6 4 -13 8 -28 8s-27 -11 -27 -38v-250h63v-83h-63zM362 82v-82h-100v710h100v-501l112 133h116l-122 -140l136 -202h-119l-84 126z" />
    <glyph glyph-name=".notdef" horiz-adv-x="182" 
 />
    <glyph glyph-name="space" unicode=" " horiz-adv-x="182" 
 />
    <glyph glyph-name="exclam" unicode="!" horiz-adv-x="230" 
d="M73 212l-15 468h114l-15 -468h-84zM115 -6c-37 0 -70 29 -70 70s33 70 70 70s70 -29 70 -70s-33 -70 -70 -70z" />
    <glyph glyph-name="quotedbl" unicode="&#x22;" horiz-adv-x="327" 
d="M197 478l-12 202h110l-12 -202h-86zM44 478l-12 202h110l-12 -202h-86z" />
    <glyph glyph-name="numbersign" unicode="#" horiz-adv-x="472" 
d="M121 355h-60v82h81l23 93h86l-24 -93h78l23 93h86l-24 -93h61v-82h-82l-19 -77h64l-3 -82h-82l-22 -87h-86l22 87h-77l-22 -87h-86l22 87h-59v82h80zM284 355h-78l-19 -77h77z" />
    <glyph glyph-name="dollar" unicode="$" horiz-adv-x="453" 
d="M194 -7c-92 11 -147 61 -177 111l79 52c21 -35 48 -66 98 -76v155c-111 39 -149 83 -149 162c0 76 53 132 149 140v85h73v-88c61 -10 101 -40 128 -80l-72 -53c-15 21 -31 38 -56 46v-134c106 -34 159 -82 159 -165c0 -92 -55 -146 -159 -155v-109h-73v109zM194 452
c-38 -6 -52 -27 -52 -51s7 -43 52 -63v114zM267 79c46 8 62 32 62 64s-13 49 -62 67v-131z" />
    <glyph glyph-name="percent" unicode="%" horiz-adv-x="671" 
d="M157 270c-74 0 -138 58 -138 134c0 77 64 134 138 134s138 -57 138 -134c0 -76 -64 -134 -138 -134zM157 352c27 0 49 21 49 52s-22 52 -49 52s-50 -21 -50 -52s23 -52 50 -52zM128 0l309 530h99l-309 -530h-99zM506 -9c-74 0 -137 58 -137 134c0 77 63 134 137 134
s138 -57 138 -134c0 -76 -64 -134 -138 -134zM506 73c28 0 50 21 50 52s-22 52 -50 52c-27 0 -49 -21 -49 -52s22 -52 49 -52z" />
    <glyph glyph-name="ampersand" unicode="&#x26;" horiz-adv-x="656" 
d="M337 388l130 -167c16 40 24 89 24 147h98c0 -93 -21 -171 -56 -231l107 -137h-128l-45 58c-52 -44 -118 -67 -189 -67c-155 0 -246 84 -246 201c0 104 67 157 165 213c-40 51 -52 93 -52 136c0 80 60 148 160 148c98 0 155 -60 155 -144c0 -62 -42 -109 -123 -157z
M288 451c49 31 71 54 71 94c0 28 -18 54 -54 54c-39 0 -57 -27 -57 -58c0 -35 15 -58 36 -85zM409 132l-163 210c-76 -43 -103 -87 -103 -150c0 -65 48 -108 136 -108c50 0 95 16 130 48z" />
    <glyph glyph-name="quoteright" unicode="&#x2019;" horiz-adv-x="213" 
d="M47 468l34 92c-21 10 -42 32 -42 62c0 39 32 67 68 67c35 0 67 -28 67 -66c0 -26 -9 -47 -23 -70l-53 -85h-51z" />
    <glyph glyph-name="parenleft" unicode="(" horiz-adv-x="306" 
d="M224 -137c-87 87 -178 222 -178 428c0 205 91 341 178 428l62 -51c-79 -94 -132 -209 -132 -377s53 -283 132 -377z" />
    <glyph glyph-name="parenright" unicode=")" horiz-adv-x="306" 
d="M82 -137l-62 51c79 94 132 209 132 377s-53 283 -132 377l62 51c87 -87 178 -222 178 -428c0 -205 -91 -341 -178 -428z" />
    <glyph glyph-name="asterisk" unicode="*" horiz-adv-x="376" 
d="M147 410l11 85l-67 -52l-40 69l81 33l-81 33l40 69l67 -54l-11 87h82l-12 -87l68 54l40 -69l-82 -33l82 -33l-40 -69l-67 52l11 -85h-82z" />
    <glyph glyph-name="plus" unicode="+" horiz-adv-x="361" 
d="M227 214v-104h-93v104h-98v90h98v104h93v-104h98v-90h-98z" />
    <glyph glyph-name="comma" unicode="," horiz-adv-x="212" 
d="M40 -96l35 97c-23 11 -39 34 -39 63c0 41 33 70 70 70s70 -29 70 -70c0 -25 -12 -45 -26 -68l-55 -92h-55z" />
    <glyph glyph-name="hyphen" unicode="-" horiz-adv-x="250" 
d="M33 165v91h184v-91h-184z" />
    <glyph glyph-name="period" unicode="." horiz-adv-x="212" 
d="M106 -6c-37 0 -70 29 -70 70s33 70 70 70s70 -29 70 -70s-33 -70 -70 -70z" />
    <glyph glyph-name="slash" unicode="/" horiz-adv-x="416" 
d="M-1 -128l287 838h103l-287 -838h-103z" />
    <glyph glyph-name="zero" unicode="0" horiz-adv-x="530" 
d="M265 -9c-131 0 -234 108 -234 274c0 167 103 273 234 273s234 -106 234 -273c0 -166 -103 -274 -234 -274zM265 83c77 0 126 71 126 182s-49 181 -126 181s-126 -70 -126 -181s49 -182 126 -182z" />
    <glyph glyph-name="one" unicode="1" horiz-adv-x="294" 
d="M112 0v442h-83v88h187v-530h-104z" />
    <glyph glyph-name="two" unicode="2" horiz-adv-x="442" 
d="M2 0v5l189 206c58 63 101 106 101 163c0 42 -25 72 -74 72c-48 0 -83 -34 -97 -85l-91 35c29 91 102 142 189 142c114 0 179 -67 179 -162c0 -69 -46 -127 -117 -204l-78 -84h205v-88h-406z" />
    <glyph glyph-name="three" unicode="3" horiz-adv-x="466" 
d="M228 -9c-115 0 -186 71 -212 131l88 45c23 -51 63 -86 124 -86c63 0 103 33 103 97s-57 93 -117 93c-38 0 -63 -6 -82 -12l-8 15l136 168h-202v88h372v-5l-147 -185c80 -8 155 -69 155 -164c0 -102 -69 -185 -210 -185z" />
    <glyph glyph-name="four" unicode="4" horiz-adv-x="486" 
d="M390 178h69v-79h-69v-99h-101v99h-280v22l361 418h20v-361zM289 178v153l-130 -153h130z" />
    <glyph glyph-name="five" unicode="5" horiz-adv-x="448" 
d="M216 -9c-102 0 -173 59 -199 116l87 45c20 -40 55 -71 112 -71c61 0 97 33 97 91s-40 87 -112 87c-66 0 -100 -20 -125 -38l-5 3v306h312v-88h-223v-102c13 4 36 8 69 8c110 0 191 -74 191 -178c0 -102 -68 -179 -204 -179z" />
    <glyph glyph-name="six" unicode="6" horiz-adv-x="457" 
d="M229 -9c-108 0 -198 67 -198 181c0 54 22 108 70 171l142 187h114l-141 -185c9 3 22 5 36 5c99 0 176 -72 176 -176c0 -114 -90 -183 -199 -183zM229 81c58 0 93 40 93 93s-38 96 -94 96c-61 0 -92 -41 -92 -96c0 -53 35 -93 93 -93z" />
    <glyph glyph-name="seven" unicode="7" horiz-adv-x="453" 
d="M73 0l210 442h-254v88h402v-5l-248 -525h-110z" />
    <glyph glyph-name="eight" unicode="8" horiz-adv-x="446" 
d="M223 -9c-115 0 -194 71 -194 165c0 66 39 111 96 135c-37 19 -66 53 -66 106c0 73 62 141 164 141s164 -68 164 -141c0 -53 -29 -87 -66 -106c56 -24 97 -69 97 -135c0 -94 -79 -165 -195 -165zM223 80c54 0 89 36 89 85s-35 85 -89 85s-89 -36 -89 -85s35 -85 89 -85z
M223 333c35 0 60 26 60 61c0 34 -25 59 -60 59s-60 -25 -60 -59c0 -35 25 -61 60 -61z" />
    <glyph glyph-name="nine" unicode="9" horiz-adv-x="457" 
d="M228 539c108 0 198 -67 198 -181c0 -54 -22 -108 -70 -171l-142 -187h-114l141 185c-9 -3 -22 -5 -36 -5c-99 0 -176 72 -176 176c0 114 90 183 199 183zM228 449c-58 0 -93 -40 -93 -93s38 -96 94 -96c61 0 92 41 92 96c0 53 -35 93 -93 93z" />
    <glyph glyph-name="colon" unicode=":" horiz-adv-x="222" 
d="M111 196c-37 0 -70 29 -70 70s33 70 70 70s70 -29 70 -70s-33 -70 -70 -70zM111 -6c-37 0 -70 29 -70 70s33 70 70 70s70 -29 70 -70s-33 -70 -70 -70z" />
    <glyph glyph-name="semicolon" unicode=";" horiz-adv-x="222" 
d="M111 196c-37 0 -70 29 -70 70s33 70 70 70s70 -29 70 -70s-33 -70 -70 -70zM45 -96l35 97c-23 11 -39 34 -39 63c0 41 33 70 70 70s70 -29 70 -70c0 -25 -12 -45 -26 -68l-55 -92h-55z" />
    <glyph glyph-name="less" unicode="&#x3c;" horiz-adv-x="324" 
d="M289 89l-263 153v4l263 151v-91l-110 -63l110 -63v-91z" />
    <glyph glyph-name="equal" unicode="=" horiz-adv-x="361" 
d="M36 279v90h289v-90h-289zM36 144v90h289v-90h-289z" />
    <glyph glyph-name="greater" unicode="&#x3e;" horiz-adv-x="324" 
d="M35 89v91l110 63l-110 63v91l263 -153v-4z" />
    <glyph glyph-name="question" unicode="?" horiz-adv-x="453" 
d="M156 207v180h36c89 0 122 53 122 109c0 53 -37 101 -99 101c-59 0 -90 -32 -117 -77l-82 48c33 64 99 121 198 121c131 0 208 -88 208 -193c0 -104 -56 -174 -168 -193v-96h-98zM204 -6c-37 0 -70 29 -70 70s33 70 70 70s70 -29 70 -70s-33 -70 -70 -70z" />
    <glyph glyph-name="at" unicode="@" horiz-adv-x="773" 
d="M407 -188c-220 0 -382 146 -382 356s173 356 368 356c206 0 354 -136 354 -329c0 -140 -64 -206 -154 -206c-59 0 -97 20 -118 62c-28 -45 -66 -60 -118 -60c-85 0 -154 72 -154 170c0 99 69 172 154 172c49 0 76 -18 94 -45v36h101v-203c0 -39 16 -54 43 -54
c33 0 64 39 64 126c0 162 -104 250 -269 250c-160 0 -269 -113 -269 -275s109 -275 283 -275c49 0 99 8 140 29l40 -71c-50 -29 -111 -39 -177 -39zM380 78c47 0 72 32 72 83c0 52 -25 85 -72 85c-46 0 -71 -33 -71 -85c0 -51 25 -83 71 -83z" />
    <glyph glyph-name="A" unicode="A" horiz-adv-x="645" 
d="M511 0l-53 127h-276l-53 -127h-108l298 694h6l299 -694h-113zM321 459l-100 -238h198z" />
    <glyph glyph-name="B" unicode="B" horiz-adv-x="588" 
d="M74 0v680h242c135 0 202 -78 202 -177c0 -68 -36 -123 -102 -143c82 -19 133 -72 133 -167c0 -110 -74 -193 -216 -193h-259zM180 92h147c78 0 116 45 116 109c0 67 -42 110 -122 110h-141v-219zM180 397h130c71 0 103 40 103 96c0 57 -31 95 -105 95h-128v-191z" />
    <glyph glyph-name="C" unicode="C" horiz-adv-x="710" 
d="M385 -9c-194 0 -344 148 -344 349s153 349 347 349c126 0 213 -49 272 -132l-82 -58c-45 61 -103 93 -193 93c-135 0 -233 -108 -233 -252c0 -147 100 -252 237 -252c88 0 153 33 204 99l83 -57c-70 -93 -159 -139 -291 -139z" />
    <glyph glyph-name="D" unicode="D" horiz-adv-x="665" 
d="M74 0v680h192c222 0 358 -139 358 -340s-135 -340 -358 -340h-192zM181 95h79c176 0 253 101 253 245s-77 245 -253 245h-79v-490z" />
    <glyph glyph-name="E" unicode="E" horiz-adv-x="572" 
d="M74 0v680h433v-95h-326v-195h289v-93h-289v-202h340v-95h-447z" />
    <glyph glyph-name="F" unicode="F" horiz-adv-x="540" 
d="M74 0v680h424v-95h-317v-214h289v-95h-289v-276h-107z" />
    <glyph glyph-name="G" unicode="G" horiz-adv-x="723" 
d="M405 -9c-209 0 -364 148 -364 349s154 349 349 349c126 0 202 -45 258 -108l-74 -70c-41 45 -88 81 -187 81c-138 0 -235 -108 -235 -252s98 -252 253 -252c74 0 126 17 165 43v137h-182v95h281v-283c-57 -47 -136 -89 -264 -89z" />
    <glyph glyph-name="H" unicode="H" horiz-adv-x="688" 
d="M507 379v301h107v-680h-107v284h-326v-284h-107v680h107v-301h326z" />
    <glyph glyph-name="I" unicode="I" horiz-adv-x="261" 
d="M77 0v680h107v-680h-107z" />
    <glyph glyph-name="J" unicode="J" horiz-adv-x="475" 
d="M212 -9c-104 0 -164 52 -197 116l88 54c24 -43 49 -73 105 -73c52 0 89 24 89 105v487h108v-489c0 -135 -81 -200 -193 -200z" />
    <glyph glyph-name="K" unicode="K" horiz-adv-x="616" 
d="M569 680l-241 -292l275 -388h-130l-216 307l-76 -90v-217h-107v680h107v-329l268 329h120z" />
    <glyph glyph-name="L" unicode="L" horiz-adv-x="515" 
d="M74 0v680h107v-585h300v-95h-407z" />
    <glyph glyph-name="M" unicode="M" horiz-adv-x="818" 
d="M74 0v694h5l332 -383l328 383h5v-694h-101v441l-232 -277h-5l-231 277v-441h-101z" />
    <glyph glyph-name="N" unicode="N" horiz-adv-x="691" 
d="M610 -10l-436 457v-447h-100v690h8l436 -457v447h100v-690h-8z" />
    <glyph glyph-name="O" unicode="O" horiz-adv-x="784" 
d="M392 -9c-195 0 -351 148 -351 349s156 349 351 349s351 -148 351 -349s-156 -349 -351 -349zM392 88c141 0 240 108 240 252s-99 252 -240 252s-240 -108 -240 -252s99 -252 240 -252z" />
    <glyph glyph-name="P" unicode="P" horiz-adv-x="577" 
d="M181 240v-240h-107v680h216c159 0 250 -88 250 -220c0 -135 -92 -220 -250 -220h-109zM181 335h105c101 0 143 42 143 125c0 84 -43 125 -143 125h-105v-250z" />
    <glyph glyph-name="Q" unicode="Q" horiz-adv-x="784" 
d="M443 -5v-119h-102v119c-171 24 -300 162 -300 345c0 201 156 348 351 348s351 -147 351 -348c0 -183 -129 -321 -300 -345zM341 90v109h102v-109c113 23 189 121 189 250c0 144 -99 251 -240 251s-240 -107 -240 -251c0 -129 76 -227 189 -250z" />
    <glyph glyph-name="R" unicode="R" horiz-adv-x="598" 
d="M181 251v-251h-107v680h218c159 0 250 -87 250 -216c0 -95 -47 -163 -132 -194l164 -270h-117l-152 251h-13h-111zM181 343h107c101 0 143 40 143 121c0 82 -43 121 -143 121h-107v-242z" />
    <glyph glyph-name="S" unicode="S" horiz-adv-x="531" 
d="M22 134l90 45c31 -59 84 -92 154 -92c72 0 120 34 120 89c0 64 -49 88 -109 115l-47 21c-100 44 -169 94 -169 200c0 104 79 177 195 177c94 0 157 -35 200 -107l-81 -53c-26 44 -63 66 -117 66c-58 0 -93 -32 -93 -79c0 -54 34 -73 108 -106l47 -21
c103 -46 172 -95 172 -210c0 -125 -96 -188 -225 -188c-116 0 -199 56 -245 143z" />
    <glyph glyph-name="T" unicode="T" horiz-adv-x="559" 
d="M226 0v585h-202v95h511v-95h-202v-585h-107z" />
    <glyph glyph-name="U" unicode="U" horiz-adv-x="659" 
d="M330 -9c-148 0 -260 83 -260 249v440h107v-434c0 -109 54 -158 153 -158c98 0 152 49 152 158v434h107v-440c0 -166 -112 -249 -259 -249z" />
    <glyph glyph-name="V" unicode="V" horiz-adv-x="645" 
d="M324 -10l-303 690h113l194 -457l188 457h108l-294 -690h-6z" />
    <glyph glyph-name="W" unicode="W" horiz-adv-x="940" 
d="M263 -9l-243 689h113l146 -434l192 448h6l193 -448l143 434h106l-238 -689h-6l-201 474l-206 -474h-5z" />
    <glyph glyph-name="X" unicode="X" horiz-adv-x="641" 
d="M260 369l-196 311h121l136 -215l136 215h113l-193 -304l238 -376h-121l-177 280l-177 -280h-113z" />
    <glyph glyph-name="Y" unicode="Y" horiz-adv-x="615" 
d="M257 271l-237 409h118l174 -305l171 305h112l-231 -408v-272h-107v271z" />
    <glyph glyph-name="Z" unicode="Z" horiz-adv-x="598" 
d="M29 0v6l359 579h-304v95h476v-6l-359 -579h348v-95h-520z" />
    <glyph glyph-name="bracketleft" unicode="[" horiz-adv-x="307" 
d="M74 -128v838h201v-87h-98v-664h98v-87h-201z" />
    <glyph glyph-name="backslash" unicode="\" horiz-adv-x="416" 
d="M314 -128l-287 838h103l287 -838h-103z" />
    <glyph glyph-name="bracketright" unicode="]" horiz-adv-x="307" 
d="M32 -128v87h98v664h-98v87h201v-838h-201z" />
    <glyph glyph-name="asciicircum" unicode="^" horiz-adv-x="401" 
d="M200 544l-86 -137h-98l182 283h6l181 -283h-99z" />
    <glyph glyph-name="underscore" unicode="_" horiz-adv-x="270" 
d="M-2 -128v91h274v-91h-274z" />
    <glyph glyph-name="quoteleft" unicode="&#x2018;" horiz-adv-x="213" 
d="M106 459c-35 0 -67 28 -67 66c0 26 9 47 23 70l53 85h51l-34 -92c21 -10 42 -32 42 -62c0 -39 -32 -67 -68 -67z" />
    <glyph glyph-name="a" unicode="a" horiz-adv-x="380" 
d="M243 205c-1 46 -27 62 -63 62s-62 -14 -82 -37l-61 56c38 43 88 65 149 65c97 0 157 -50 157 -151v-200h-100v31c-23 -27 -56 -40 -96 -40c-69 0 -127 34 -127 114c0 67 59 100 134 100h89zM243 137h-84c-26 0 -40 -13 -40 -33c0 -19 13 -33 46 -33c45 0 78 24 78 52v14z
" />
    <glyph glyph-name="b" unicode="b" horiz-adv-x="435" 
d="M248 -9c-52 0 -87 18 -106 48v-39h-100v710h100v-407c19 30 54 48 106 48c89 0 161 -76 161 -180s-72 -180 -161 -180zM222 79c51 0 84 36 84 92s-33 92 -84 92s-82 -36 -82 -92s31 -92 82 -92z" />
    <glyph glyph-name="c" unicode="c" horiz-adv-x="377" 
d="M208 -9c-104 0 -182 76 -182 180s78 180 180 180c69 0 112 -24 143 -60l-66 -61c-17 19 -43 34 -74 34c-50 0 -80 -41 -80 -93s30 -93 82 -93c38 0 62 19 78 36l66 -60c-33 -38 -75 -63 -147 -63z" />
    <glyph glyph-name="d" unicode="d" horiz-adv-x="435" 
d="M187 -9c-89 0 -161 76 -161 180s72 180 161 180c52 0 87 -18 106 -48v407h100v-710h-100v39c-19 -30 -54 -48 -106 -48zM213 79c51 0 82 36 82 92s-31 92 -82 92s-84 -36 -84 -92s33 -92 84 -92z" />
    <glyph glyph-name="e" unicode="e" horiz-adv-x="416" 
d="M130 137c10 -38 39 -62 89 -62c44 0 70 17 89 33l60 -60c-31 -33 -76 -57 -147 -57c-119 0 -195 76 -195 180s81 180 185 180c120 0 188 -95 180 -214h-261zM131 207h155c-7 35 -32 60 -75 60c-41 0 -70 -21 -80 -60z" />
    <glyph glyph-name="f" unicode="f" horiz-adv-x="260" 
d="M159 259v-259h-100v259h-40v83h40v248c0 85 44 128 115 128c48 0 76 -15 97 -39l-56 -63c-6 8 -16 14 -31 14c-13 0 -25 -9 -25 -39v-249h82v-83h-82z" />
    <glyph glyph-name="g" unicode="g" horiz-adv-x="435" 
d="M210 -222c-83 0 -141 34 -180 105l78 44c23 -41 56 -64 98 -64c54 0 87 30 87 94v82c-19 -30 -54 -48 -106 -48c-89 0 -161 76 -161 180s72 180 161 180c52 0 87 -18 106 -48v39h100v-385c0 -113 -67 -179 -183 -179zM213 79c51 0 82 36 82 92s-31 92 -82 92
s-84 -36 -84 -92s33 -92 84 -92z" />
    <glyph glyph-name="h" unicode="h" horiz-adv-x="413" 
d="M40 0v710h100v-412c22 36 59 53 107 53c76 0 129 -53 129 -144v-207h-100v200c0 38 -20 61 -61 61c-48 0 -75 -26 -75 -77v-184h-100z" />
    <glyph glyph-name="i" unicode="i" 
d="M92 406c-33 0 -63 27 -63 63s30 63 63 63c34 0 63 -27 63 -63s-29 -63 -63 -63zM42 0v342h100v-342h-100z" />
    <glyph glyph-name="j" unicode="j" 
d="M92 406c-33 0 -63 27 -63 63s30 63 63 63c34 0 63 -27 63 -63s-29 -63 -63 -63zM32 -222c-48 0 -76 17 -95 38l49 61c8 -7 18 -13 29 -13c17 0 27 9 27 31v447h100v-444c0 -77 -40 -120 -110 -120z" />
    <glyph glyph-name="k" unicode="k" horiz-adv-x="389" 
d="M140 82v-82h-100v710h100v-501l112 133h116l-122 -140l136 -202h-119l-84 126z" />
    <glyph glyph-name="l" unicode="l" 
d="M42 0v710h100v-710h-100z" />
    <glyph glyph-name="m" unicode="m" horiz-adv-x="621" 
d="M40 0v342h100v-39c21 33 54 48 96 48c46 0 78 -20 97 -58c29 40 69 58 124 58c79 0 127 -56 127 -142v-209h-100v199c0 39 -13 62 -55 62c-45 0 -67 -26 -67 -77v-184h-100v199c0 39 -13 62 -55 62c-45 0 -67 -26 -67 -77v-184h-100z" />
    <glyph glyph-name="n" unicode="n" horiz-adv-x="410" 
d="M40 0v342h100v-44c22 37 59 53 107 53c76 0 129 -53 129 -144v-207h-100v200c0 38 -20 61 -61 61c-48 0 -75 -26 -75 -77v-184h-100z" />
    <glyph glyph-name="o" unicode="o" horiz-adv-x="426" 
d="M213 -9c-105 0 -187 76 -187 180s82 180 187 180s187 -76 187 -180s-82 -180 -187 -180zM213 76c52 0 84 40 84 95s-32 95 -84 95s-84 -40 -84 -95s32 -95 84 -95z" />
    <glyph glyph-name="p" unicode="p" horiz-adv-x="435" 
d="M42 -212v554h100v-39c19 30 54 48 106 48c89 0 161 -76 161 -180s-72 -180 -161 -180c-52 0 -87 18 -106 48v-251h-100zM222 79c51 0 84 36 84 92s-33 92 -84 92s-82 -36 -82 -92s31 -92 82 -92z" />
    <glyph glyph-name="q" unicode="q" horiz-adv-x="435" 
d="M293 -212v251c-19 -30 -54 -48 -106 -48c-89 0 -161 76 -161 180s72 180 161 180c52 0 87 -18 106 -48v39h100v-554h-100zM213 79c51 0 82 36 82 92s-31 92 -82 92s-84 -36 -84 -92s33 -92 84 -92z" />
    <glyph glyph-name="r" unicode="r" horiz-adv-x="302" 
d="M40 0v342h100v-53c23 47 62 62 98 62c24 0 41 -7 54 -15l-32 -86c-13 7 -26 11 -43 11c-48 0 -77 -29 -77 -100v-161h-100z" />
    <glyph glyph-name="s" unicode="s" horiz-adv-x="327" 
d="M164 -9c-60 0 -115 21 -155 67l64 56c24 -29 55 -43 89 -43c36 0 50 11 50 25c0 16 -10 23 -66 35c-71 15 -113 49 -113 112c0 64 49 108 130 108c57 0 94 -20 126 -49l-54 -60c-17 17 -39 30 -69 30c-32 0 -43 -11 -43 -24c0 -17 13 -23 70 -34c77 -15 114 -54 114 -110
c0 -69 -49 -113 -143 -113z" />
    <glyph glyph-name="t" unicode="t" horiz-adv-x="268" 
d="M59 259h-40v83h40v123h100v-123h80v-83h-80v-139c0 -35 11 -43 29 -43c12 0 22 6 30 12l39 -70c-17 -14 -44 -28 -86 -28c-65 0 -112 32 -112 127v141z" />
    <glyph glyph-name="u" unicode="u" horiz-adv-x="413" 
d="M166 -9c-76 0 -129 53 -129 144v207h100v-200c0 -38 20 -61 61 -61c48 0 75 26 75 77v184h100v-342h-100v44c-22 -37 -59 -53 -107 -53z" />
    <glyph glyph-name="v" unicode="v" horiz-adv-x="379" 
d="M189 -9l-186 351h112l82 -166l79 166h100l-183 -351h-4z" />
    <glyph glyph-name="w" unicode="w" horiz-adv-x="543" 
d="M161 -9l-158 351h112l66 -162l91 171h3l96 -171l70 162h99l-160 -351h-4l-103 193l-108 -193h-4z" />
    <glyph glyph-name="x" unicode="x" horiz-adv-x="392" 
d="M140 180l-116 162h114l61 -85l61 85h107l-116 -158l132 -184h-114l-76 106l-77 -106h-107z" />
    <glyph glyph-name="y" unicode="y" horiz-adv-x="379" 
d="M147 31l-144 311h112l82 -197l80 197h99l-231 -554h-100z" />
    <glyph glyph-name="z" unicode="z" horiz-adv-x="346" 
d="M15 0v4l159 255h-136v83h289v-4l-158 -255h149v-83h-303z" />
    <glyph glyph-name="braceleft" unicode="{" horiz-adv-x="348" 
d="M260 -128c-66 0 -140 21 -140 137v179c0 48 -18 63 -53 63h-45v87h45c35 0 53 15 53 63v172c0 116 74 137 140 137h56v-87h-51c-28 0 -42 -12 -42 -47v-196c0 -57 -30 -78 -68 -85c38 -7 68 -30 68 -85v-204c0 -35 14 -47 42 -47h51v-87h-56z" />
    <glyph glyph-name="bar" unicode="|" horiz-adv-x="244" 
d="M70 -128v838h104v-838h-104z" />
    <glyph glyph-name="braceright" unicode="}" horiz-adv-x="348" 
d="M32 -128v87h51c28 0 42 12 42 47v204c0 55 30 78 68 85c-38 7 -68 28 -68 85v196c0 35 -14 47 -42 47h-51v87h56c66 0 140 -21 140 -137v-172c0 -48 18 -63 53 -63h45v-87h-45c-35 0 -53 -15 -53 -63v-179c0 -116 -74 -137 -140 -137h-56z" />
    <glyph glyph-name="asciitilde" unicode="~" horiz-adv-x="362" 
d="M233 218c-49 0 -69 29 -96 29c-12 0 -23 -6 -29 -28l-78 10c10 70 51 112 99 112c49 0 69 -29 96 -29c12 0 23 6 29 28l77 -10c-10 -70 -50 -112 -98 -112z" />
    <glyph glyph-name="exclamdown" unicode="&#xa1;" horiz-adv-x="230" 
d="M115 546c-37 0 -70 29 -70 70s33 70 70 70s70 -29 70 -70s-33 -70 -70 -70zM58 0l15 468h84l15 -468h-114z" />
    <glyph glyph-name="cent" unicode="&#xa2;" horiz-adv-x="382" 
d="M175 -5c-86 17 -149 86 -149 176c0 91 63 160 149 176v95h73v-93c52 -7 85 -31 110 -63l-66 -57c-9 14 -24 26 -44 33v-183c22 7 37 19 49 31l65 -56c-28 -32 -63 -54 -114 -61v-99h-73v101zM175 258c-30 -14 -48 -46 -48 -87c0 -42 18 -73 48 -87v174z" />
    <glyph glyph-name="sterling" unicode="&#xa3;" horiz-adv-x="496" 
d="M149 215h-93v79h49c-13 27 -22 56 -22 87c0 82 67 157 181 157c79 0 138 -30 181 -100l-82 -51c-23 37 -56 59 -98 59c-49 0 -76 -31 -76 -71c0 -29 9 -55 21 -81h147v-79h-110c11 -26 19 -55 19 -88c0 -7 -1 -14 -2 -21c24 -14 48 -24 74 -24c37 0 55 14 79 38l63 -64
c-31 -36 -77 -65 -138 -65c-52 0 -88 20 -117 42c-26 -25 -64 -42 -106 -42c-63 0 -106 40 -106 94s43 87 99 87c22 0 41 -5 60 -13c-5 19 -13 37 -23 56zM167 84c-15 13 -30 21 -47 21c-20 0 -31 -8 -31 -23s13 -24 32 -24c23 0 38 9 46 26z" />
    <glyph glyph-name="fraction" unicode="&#x2044;" horiz-adv-x="372" 
d="M-20 0l309 530h103l-309 -530h-103z" />
    <glyph glyph-name="yen" unicode="&#xa5;" horiz-adv-x="516" 
d="M43 267v74h88l-109 189h115l125 -229l126 229h106l-111 -189h90v-74h-133l-29 -50h162v-74h-163v-143h-104v143h-163v74h160l-29 50h-131z" />
    <glyph glyph-name="florin" unicode="&#x192;" horiz-adv-x="336" 
d="M74 200h-40v83h50l14 125c10 88 54 130 123 130c54 0 79 -18 103 -47l-59 -62c-9 13 -18 21 -34 21c-17 0 -29 -9 -33 -41l-14 -126h72v-83h-82l-47 -412h-100z" />
    <glyph glyph-name="section" unicode="&#xa7;" horiz-adv-x="508" 
d="M104 300c-17 25 -27 54 -27 85c0 94 71 153 174 153c87 0 139 -38 176 -93l-81 -53c-18 30 -46 57 -96 57c-48 0 -73 -23 -73 -59c0 -33 14 -49 65 -68l117 -43c89 -33 130 -88 130 -159c0 -50 -36 -91 -83 -117c16 -22 25 -48 25 -79c0 -83 -64 -142 -182 -142
c-88 0 -161 42 -193 99l75 56c23 -34 59 -65 118 -65c50 0 77 18 77 50c0 24 -11 43 -69 63l-106 37c-88 31 -130 78 -130 156c0 52 30 94 83 122zM348 52c27 14 43 33 43 61c0 36 -18 54 -62 70l-117 41c-22 8 -42 18 -60 30c-22 -15 -34 -35 -34 -63c0 -38 16 -57 59 -72
l108 -38c22 -8 44 -17 63 -29z" />
    <glyph glyph-name="quotesingle" unicode="'" horiz-adv-x="174" 
d="M44 478l-12 202h110l-12 -202h-86z" />
    <glyph glyph-name="quotedblleft" unicode="&#x201c;" horiz-adv-x="390" 
d="M283 459c-35 0 -67 28 -67 66c0 26 9 47 23 70l53 85h51l-34 -92c21 -10 42 -32 42 -62c0 -39 -32 -67 -68 -67zM106 459c-35 0 -67 28 -67 66c0 26 9 47 23 70l53 85h51l-34 -92c21 -10 42 -32 42 -62c0 -39 -32 -67 -68 -67z" />
    <glyph glyph-name="guillemotleft" unicode="&#xab;" horiz-adv-x="403" 
d="M270 32l-77 138v4l77 136h105l-77 -138l77 -140h-105zM105 32l-77 138v4l77 136h105l-77 -138l77 -140h-105z" />
    <glyph glyph-name="guilsinglleft" unicode="&#x2039;" horiz-adv-x="238" 
d="M105 32l-77 138v4l77 136h105l-77 -138l77 -140h-105z" />
    <glyph glyph-name="guilsinglright" unicode="&#x203a;" horiz-adv-x="238" 
d="M28 32l77 138l-77 140h105l77 -138v-4l-77 -136h-105z" />
    <glyph glyph-name="endash" unicode="&#x2013;" horiz-adv-x="400" 
d="M33 165v91h334v-91h-334z" />
    <glyph glyph-name="dagger" unicode="&#x2020;" horiz-adv-x="285" 
d="M95 511h-68v86h68v83h95v-83h68v-86h-68v-217h-95v217z" />
    <glyph glyph-name="daggerdbl" unicode="&#x2021;" horiz-adv-x="285" 
d="M95 515h-68v82h68v83h95v-83h68v-82h-68v-56h68v-82h-68v-83h-95v83h-68v82h68v56z" />
    <glyph glyph-name="periodcentered" unicode="&#xb7;" horiz-adv-x="212" 
d="M106 149c-37 0 -70 29 -70 70s33 70 70 70s70 -29 70 -70s-33 -70 -70 -70z" />
    <glyph glyph-name="paragraph" unicode="&#xb6;" horiz-adv-x="539" 
d="M222 352h-15c-104 0 -168 76 -168 164s64 164 168 164h258v-680h-92v597h-59v-597h-92v352z" />
    <glyph glyph-name="bullet" unicode="&#x2022;" horiz-adv-x="258" 
d="M129 164c-51 0 -96 42 -96 96c0 55 45 96 96 96s96 -41 96 -96c0 -54 -45 -96 -96 -96z" />
    <glyph glyph-name="quotesinglbase" unicode="&#x201a;" horiz-adv-x="213" 
d="M47 -92l34 92c-21 10 -42 32 -42 62c0 39 32 67 68 67c35 0 67 -28 67 -66c0 -26 -9 -47 -23 -70l-53 -85h-51z" />
    <glyph glyph-name="quotedblbase" unicode="&#x201e;" horiz-adv-x="390" 
d="M224 -92l34 92c-21 10 -42 32 -42 62c0 39 32 67 68 67c35 0 67 -28 67 -66c0 -26 -9 -47 -23 -70l-53 -85h-51zM47 -92l34 92c-21 10 -42 32 -42 62c0 39 32 67 68 67c35 0 67 -28 67 -66c0 -26 -9 -47 -23 -70l-53 -85h-51z" />
    <glyph glyph-name="quotedblright" unicode="&#x201d;" horiz-adv-x="390" 
d="M224 468l34 92c-21 10 -42 32 -42 62c0 39 32 67 68 67c35 0 67 -28 67 -66c0 -26 -9 -47 -23 -70l-53 -85h-51zM47 468l34 92c-21 10 -42 32 -42 62c0 39 32 67 68 67c35 0 67 -28 67 -66c0 -26 -9 -47 -23 -70l-53 -85h-51z" />
    <glyph glyph-name="guillemotright" unicode="&#xbb;" horiz-adv-x="403" 
d="M193 32l77 138l-77 140h105l77 -138v-4l-77 -136h-105zM28 32l77 138l-77 140h105l77 -138v-4l-77 -136h-105z" />
    <glyph glyph-name="ellipsis" unicode="&#x2026;" horiz-adv-x="614" 
d="M508 -6c-37 0 -70 29 -70 70s33 70 70 70s70 -29 70 -70s-33 -70 -70 -70zM307 -6c-37 0 -70 29 -70 70s33 70 70 70s70 -29 70 -70s-33 -70 -70 -70zM106 -6c-37 0 -70 29 -70 70s33 70 70 70s70 -29 70 -70s-33 -70 -70 -70z" />
    <glyph glyph-name="perthousand" unicode="&#x2030;" horiz-adv-x="967" 
d="M157 270c-74 0 -138 58 -138 134c0 77 64 134 138 134s138 -57 138 -134c0 -76 -64 -134 -138 -134zM157 352c27 0 49 21 49 52s-22 52 -49 52s-50 -21 -50 -52s23 -52 50 -52zM128 0l309 530h99l-309 -530h-99zM506 -9c-74 0 -137 58 -137 134c0 77 63 134 137 134
s138 -57 138 -134c0 -76 -64 -134 -138 -134zM506 73c28 0 50 21 50 52s-22 52 -50 52c-27 0 -49 -21 -49 -52s22 -52 49 -52zM810 -9c-74 0 -137 58 -137 134c0 77 63 134 137 134s138 -57 138 -134c0 -76 -64 -134 -138 -134zM810 73c28 0 50 21 50 52s-22 52 -50 52
c-27 0 -49 -21 -49 -52s22 -52 49 -52z" />
    <glyph glyph-name="questiondown" unicode="&#xbf;" horiz-adv-x="453" 
d="M249 546c-37 0 -70 29 -70 70s33 70 70 70s70 -29 70 -70s-33 -70 -70 -70zM239 -9c-131 0 -208 88 -208 193c0 104 56 174 168 193v96h98v-180h-36c-89 0 -122 -53 -122 -109c0 -53 37 -101 99 -101c59 0 90 32 117 77l82 -48c-33 -64 -99 -121 -198 -121z" />
    <glyph glyph-name="grave" unicode="`" horiz-adv-x="500" 
d="M213 396l-85 152h113l50 -152h-78z" />
    <glyph glyph-name="acute" unicode="&#xb4;" horiz-adv-x="500" 
d="M209 396l50 152h113l-85 -152h-78z" />
    <glyph glyph-name="circumflex" unicode="&#x2c6;" horiz-adv-x="500" 
d="M118 399l129 152h5l129 -152h-79l-52 43l-53 -43h-79z" />
    <glyph glyph-name="tilde" unicode="&#x2dc;" horiz-adv-x="500" 
d="M298 408c-46 0 -64 28 -88 28c-12 0 -20 -5 -26 -27l-68 9c9 62 42 100 86 100c46 0 64 -28 88 -28c12 0 20 5 26 27l68 -9c-9 -62 -42 -100 -86 -100z" />
    <glyph glyph-name="macron" unicode="&#xaf;" horiz-adv-x="500" 
d="M144 421v76h212v-76h-212z" />
    <glyph glyph-name="breve" unicode="&#x2d8;" horiz-adv-x="500" 
d="M250 398c-73 0 -116 47 -127 105l80 12c6 -24 20 -39 47 -39s41 15 47 39l80 -12c-11 -58 -54 -105 -127 -105z" />
    <glyph glyph-name="dotaccent" unicode="&#x2d9;" horiz-adv-x="500" 
d="M250 406c-33 0 -63 27 -63 63s30 63 63 63c34 0 63 -27 63 -63s-29 -63 -63 -63z" />
    <glyph glyph-name="dieresis" unicode="&#xa8;" horiz-adv-x="500" 
d="M331 410c-29 0 -57 25 -57 57s28 57 57 57c30 0 57 -25 57 -57s-27 -57 -57 -57zM169 410c-29 0 -57 25 -57 57s28 57 57 57c30 0 57 -25 57 -57s-27 -57 -57 -57z" />
    <glyph glyph-name="ring" unicode="&#x2da;" horiz-adv-x="500" 
d="M250 391c-51 0 -95 41 -95 89c0 49 44 90 95 90s95 -41 95 -90c0 -48 -44 -89 -95 -89zM250 445c19 0 33 13 33 35s-14 36 -33 36s-33 -14 -33 -36s14 -35 33 -35z" />
    <glyph glyph-name="cedilla" unicode="&#xb8;" horiz-adv-x="500" 
d="M251 -200c-48 0 -78 22 -93 48l51 31c6 -12 15 -21 33 -21c15 0 28 8 28 26c0 17 -11 27 -31 27h-28v89h57v-43c39 -6 68 -32 68 -80s-42 -77 -85 -77z" />
    <glyph glyph-name="hungarumlaut" unicode="&#x2dd;" horiz-adv-x="500" 
d="M283 396l45 152h101l-68 -152h-78zM143 396l45 152h101l-68 -152h-78z" />
    <glyph glyph-name="ogonek" unicode="&#x2db;" horiz-adv-x="500" 
d="M244 -218c-57 0 -94 33 -94 88c0 56 40 98 77 130h81c-44 -55 -68 -93 -68 -122c0 -17 10 -24 22 -24s22 6 28 13l47 -47c-23 -25 -46 -38 -93 -38z" />
    <glyph glyph-name="caron" unicode="&#x2c7;" horiz-adv-x="500" 
d="M248 396l-129 152h79l52 -43l53 43h79l-129 -152h-5z" />
    <glyph glyph-name="emdash" unicode="&#x2014;" horiz-adv-x="640" 
d="M33 165v91h574v-91h-574z" />
    <glyph glyph-name="AE" unicode="&#xc6;" horiz-adv-x="954" 
d="M903 0h-447v131h-249l-87 -131h-109l457 680h421v-95h-326v-195h289v-93h-289v-202h340v-95zM456 505l-190 -285h190v285z" />
    <glyph glyph-name="ordfeminine" unicode="&#xaa;" horiz-adv-x="349" 
d="M224 407c-1 40 -20 54 -54 54c-41 0 -62 -18 -77 -34l-55 51c26 31 62 60 143 60c73 0 136 -41 136 -136v-180h-93v28c-21 -24 -51 -36 -87 -36c-62 0 -114 31 -114 103c0 60 53 90 121 90h80zM224 345h-76c-20 0 -33 -13 -33 -29s12 -28 38 -28c41 0 71 20 71 45v12z
" />
    <glyph glyph-name="Lslash" unicode="&#x141;" horiz-adv-x="515" 
d="M181 283v-188h300v-95h-407v248l-63 -21v89l63 21v343h107v-308l193 64v-89z" />
    <glyph glyph-name="Oslash" unicode="&#xd8;" horiz-adv-x="784" 
d="M672 554c45 -58 71 -132 71 -214c0 -201 -156 -349 -351 -349c-84 0 -161 27 -221 75l-77 -76l-60 59l78 76c-44 58 -71 132 -71 215c0 201 156 349 351 349c84 0 161 -28 221 -75l77 75l60 -59zM187 199l355 345c-40 31 -91 49 -150 49c-141 0 -241 -109 -241 -253
c0 -54 13 -102 36 -141zM597 481l-354 -345c40 -31 91 -49 149 -49c141 0 241 109 241 253c0 53 -13 101 -36 141z" />
    <glyph glyph-name="OE" unicode="&#x152;" horiz-adv-x="967" 
d="M399 0c-222 0 -358 139 -358 340s135 340 358 340h503v-95h-326v-195h289v-93h-289v-202h340v-95h-517zM405 95h64v490h-64c-176 0 -253 -101 -253 -245s77 -245 253 -245z" />
    <glyph glyph-name="ordmasculine" unicode="&#xba;" horiz-adv-x="393" 
d="M198 214c-95 0 -170 68 -170 162c0 93 75 162 170 162c94 0 170 -69 170 -162c0 -94 -76 -162 -170 -162zM198 292c45 0 74 34 74 84c0 49 -29 83 -74 83c-46 0 -74 -34 -74 -83c0 -50 28 -84 74 -84z" />
    <glyph glyph-name="ae" unicode="&#xe6;" horiz-adv-x="630" 
d="M298 294c29 36 72 57 127 57c120 0 188 -95 180 -215h-261c11 -37 39 -61 89 -61c44 0 70 17 89 33l60 -60c-31 -33 -76 -57 -147 -57c-67 0 -114 24 -143 65c-33 -49 -89 -65 -145 -65c-69 0 -127 34 -127 114c0 67 59 99 134 99h91c-1 46 -27 63 -65 63
c-36 0 -62 -14 -82 -37l-61 56c38 43 88 65 149 65c51 0 90 -20 112 -57zM344 204h156c-7 38 -32 63 -75 63c-42 0 -71 -23 -81 -63zM245 136h-86c-26 0 -40 -12 -40 -32c0 -19 13 -33 46 -33c45 0 80 22 80 52v13z" />
    <glyph glyph-name="dotlessi" unicode="&#x131;" 
d="M42 0v342h100v-342h-100z" />
    <glyph glyph-name="lslash" unicode="&#x142;" horiz-adv-x="208" 
d="M154 240v-240h-100v183l-45 -25v90l45 25v437h100v-380l49 28v-90z" />
    <glyph glyph-name="oslash" unicode="&#xf8;" horiz-adv-x="426" 
d="M52 76c-16 27 -26 59 -26 95c0 104 82 180 187 180c45 0 85 -14 117 -38l48 42l42 -48l-47 -40c17 -28 27 -60 27 -96c0 -104 -82 -180 -187 -180c-45 0 -85 14 -117 38l-48 -41l-42 48zM125 138l140 120c-13 9 -31 13 -52 13c-58 0 -91 -43 -91 -100c0 -12 1 -23 3 -33z
M301 205l-141 -121c14 -8 32 -13 53 -13c58 0 91 43 91 100c0 12 -1 23 -3 34z" />
    <glyph glyph-name="oe" unicode="&#x153;" horiz-adv-x="689" 
d="M348 52c-30 -38 -77 -61 -135 -61c-105 0 -187 76 -187 180s82 180 187 180c58 0 105 -23 135 -62c31 39 78 62 136 62c120 0 188 -95 180 -217h-260c11 -36 39 -59 88 -59c44 0 70 17 89 33l60 -60c-31 -33 -76 -57 -147 -57c-66 0 -115 23 -146 61zM403 204h156
c-7 38 -32 63 -75 63c-42 0 -71 -23 -81 -63zM213 76c52 0 84 40 84 95s-32 95 -84 95s-84 -40 -84 -95s32 -95 84 -95z" />
    <glyph glyph-name="germandbls" unicode="&#xdf;" horiz-adv-x="451" 
d="M306 -9c-61 0 -110 19 -138 50l57 64c18 -18 42 -33 75 -33c27 0 40 12 40 28c0 21 -19 24 -63 41c-55 21 -86 48 -87 105c0 32 6 57 16 88l61 186c7 22 10 42 10 55c0 38 -23 59 -64 59c-48 0 -73 -27 -73 -78v-556h-100v559c0 109 87 159 174 159
c103 0 159 -53 160 -139c0 -24 -6 -47 -16 -77l-65 -197c-6 -18 -9 -24 -9 -39c0 -21 12 -32 50 -45c59 -20 100 -44 100 -118c0 -59 -32 -112 -128 -112z" />
    <glyph glyph-name="trademark" unicode="&#x2122;" horiz-adv-x="533" 
d="M254 452v231h6l112 -111l111 111h6v-231h-67v94l-50 -55l-50 55v-94h-68zM88 624h-62v56h190v-56h-60v-172h-68v172z" />
    <glyph glyph-name="Eth" unicode="&#xd0;" horiz-adv-x="665" 
d="M74 297h-63v93h63v290h192c222 0 358 -139 358 -340s-135 -340 -358 -340h-192v297zM181 390h164v-93h-164v-202h79c176 0 253 101 253 245s-77 245 -253 245h-79v-195z" />
    <glyph glyph-name="onehalf" unicode="&#xbd;" horiz-adv-x="357" 
d="M136 402v212h-56v66h135v-278h-79zM55 0v10l99 106c33 36 49 55 49 75c0 16 -13 26 -30 26c-23 0 -36 -18 -41 -36l-70 26c17 47 56 79 116 79c70 0 109 -38 109 -87c0 -38 -27 -68 -67 -110l-24 -25h97v-64h-238zM33 311v59h291v-59h-291z" />
    <glyph glyph-name="Thorn" unicode="&#xde;" horiz-adv-x="577" 
d="M181 126v-126h-107v680h107v-114h109c159 0 250 -88 250 -220c0 -135 -92 -220 -250 -220h-109zM181 221h105c101 0 143 42 143 125c0 84 -43 125 -143 125h-105v-250z" />
    <glyph glyph-name="onequarter" unicode="&#xbc;" horiz-adv-x="357" 
d="M136 402v212h-56v66h135v-278h-79zM265 105h39v-49h-39v-56h-68v56h-156v10l212 225h12v-186zM199 104v57l-53 -57h53zM33 311v59h291v-59h-291z" />
    <glyph glyph-name="divide" unicode="&#xf7;" horiz-adv-x="381" 
d="M345 214h-309v90h309v-90zM191 344c-35 0 -67 28 -67 67s32 67 67 67s67 -28 67 -67s-32 -67 -67 -67zM191 40c-35 0 -67 28 -67 67s32 67 67 67s67 -28 67 -67s-32 -67 -67 -67z" />
    <glyph glyph-name="degree" unicode="&#xb0;" horiz-adv-x="298" 
d="M151 312c-65 0 -118 51 -118 113c0 64 53 113 118 113s118 -49 118 -113c0 -62 -53 -113 -118 -113zM151 376c27 0 47 21 47 49s-20 49 -47 49s-47 -21 -47 -49s20 -49 47 -49z" />
    <glyph glyph-name="thorn" unicode="&#xfe;" horiz-adv-x="435" 
d="M42 -212v922h100v-407c19 30 54 48 106 48c89 0 161 -76 161 -180s-72 -180 -161 -180c-52 0 -87 18 -106 48v-251h-100zM222 79c51 0 84 36 84 92s-33 92 -84 92s-82 -36 -82 -92s31 -92 82 -92z" />
    <glyph glyph-name="threequarters" unicode="&#xbe;" horiz-adv-x="357" 
d="M59 457l58 32c10 -23 29 -38 57 -38c26 0 45 15 45 43c0 30 -25 41 -51 41c-17 0 -31 -3 -43 -8l-5 9l67 84h-106v60h215v-7l-80 -95c40 -7 77 -34 77 -84c0 -58 -37 -103 -115 -103c-63 0 -100 30 -119 66zM265 105h39v-49h-39v-56h-68v56h-156v10l212 225h12v-186z
M199 104v57l-53 -57h53zM33 311v59h291v-59h-291z" />
    <glyph glyph-name="registered" unicode="&#xae;" horiz-adv-x="390" 
d="M194 356c-93 0 -168 70 -168 166c0 97 75 167 168 167c94 0 170 -70 170 -167c0 -96 -76 -166 -170 -166zM194 390c77 0 134 55 134 132c0 80 -57 134 -134 134c-76 0 -131 -54 -131 -134c0 -77 55 -132 131 -132zM176 489v-59h-52v188h76c48 0 75 -28 75 -67
c0 -25 -13 -44 -35 -54l39 -67h-55l-32 59h-16zM176 528h21c18 0 27 8 27 23c0 16 -9 23 -27 23h-21v-46z" />
    <glyph glyph-name="minus" unicode="&#x2212;" horiz-adv-x="361" 
d="M325 214h-289v90h289v-90z" />
    <glyph glyph-name="eth" unicode="&#xf0;" horiz-adv-x="426" 
d="M198 517l-50 -42l-46 49l52 43c-22 23 -48 46 -76 69l47 65c34 -22 67 -47 97 -77l50 42l46 -49l-51 -42c80 -97 133 -223 133 -359c0 -154 -82 -225 -187 -225s-187 76 -187 180c0 107 78 180 166 180c49 0 77 -14 99 -44c-16 81 -46 148 -93 210zM213 76
c52 0 84 40 84 95s-32 95 -84 95s-84 -40 -84 -95s32 -95 84 -95z" />
    <glyph glyph-name="multiply" unicode="&#xd7;" horiz-adv-x="337" 
d="M225 248l81 -80l-57 -57l-81 80l-80 -80l-57 57l80 80l-80 80l57 57l80 -80l80 80l57 -57z" />
    <glyph glyph-name="copyright" unicode="&#xa9;" horiz-adv-x="613" 
d="M307 -6c-147 0 -273 115 -273 272s126 272 273 272c146 0 272 -115 272 -272s-126 -272 -272 -272zM307 44c121 0 219 95 219 222s-98 222 -219 222c-122 0 -220 -95 -220 -222s98 -222 220 -222zM311 102c-95 0 -166 69 -166 164s71 164 164 164c63 0 102 -22 130 -55
l-64 -59c-15 16 -36 29 -64 29c-43 0 -66 -35 -66 -79s23 -79 67 -79c34 0 54 18 68 31l64 -58c-30 -35 -68 -58 -133 -58z" />
    <glyph glyph-name="Aacute" unicode="&#xc1;" horiz-adv-x="645" 
d="M511 0l-53 127h-276l-53 -127h-108l298 694h6l299 -694h-113zM321 459l-100 -238h198zM283 726l50 152h113l-85 -152h-78z" />
    <glyph glyph-name="Acircumflex" unicode="&#xc2;" horiz-adv-x="645" 
d="M511 0l-53 127h-276l-53 -127h-108l298 694h6l299 -694h-113zM321 459l-100 -238h198zM191 729l129 152h5l129 -152h-79l-52 43l-53 -43h-79z" />
    <glyph glyph-name="Adieresis" unicode="&#xc4;" horiz-adv-x="645" 
d="M511 0l-53 127h-276l-53 -127h-108l298 694h6l299 -694h-113zM321 459l-100 -238h198zM403 726c-29 0 -57 25 -57 57s28 57 57 57c30 0 57 -25 57 -57s-27 -57 -57 -57zM241 726c-29 0 -57 25 -57 57s28 57 57 57c30 0 57 -25 57 -57s-27 -57 -57 -57z" />
    <glyph glyph-name="Agrave" unicode="&#xc0;" horiz-adv-x="645" 
d="M511 0l-53 127h-276l-53 -127h-108l298 694h6l299 -694h-113zM321 459l-100 -238h198zM286 726l-85 152h113l50 -152h-78z" />
    <glyph glyph-name="Aring" unicode="&#xc5;" horiz-adv-x="645" 
d="M511 0l-53 127h-276l-53 -127h-108l298 694h6l299 -694h-113zM322 721c-51 0 -95 41 -95 89c0 49 44 90 95 90s95 -41 95 -90c0 -48 -44 -89 -95 -89zM321 459l-100 -238h198zM322 775c19 0 33 13 33 35s-14 36 -33 36s-33 -14 -33 -36s14 -35 33 -35z" />
    <glyph glyph-name="Atilde" unicode="&#xc3;" horiz-adv-x="645" 
d="M511 0l-53 127h-276l-53 -127h-108l298 694h6l299 -694h-113zM382 739c-49 0 -85 26 -112 26c-16 0 -23 -7 -29 -29l-68 9c9 62 42 102 89 102c49 0 85 -26 112 -26c16 0 23 7 29 29l68 -9c-9 -62 -42 -102 -89 -102zM321 459l-100 -238h198z" />
    <glyph glyph-name="Ccedilla" unicode="&#xc7;" horiz-adv-x="710" 
d="M341 -6c-172 20 -300 160 -300 346c0 201 153 349 347 349c126 0 213 -49 272 -132l-82 -58c-45 61 -103 93 -193 93c-135 0 -233 -108 -233 -252c0 -147 100 -252 237 -252c88 0 153 33 204 99l83 -57c-68 -90 -153 -136 -278 -139v-34c39 -6 68 -32 68 -80
s-42 -77 -85 -77c-48 0 -78 22 -93 48l51 31c6 -12 15 -21 33 -21c15 0 28 8 28 26c0 17 -11 27 -31 27h-28v83z" />
    <glyph glyph-name="Eacute" unicode="&#xc9;" horiz-adv-x="572" 
d="M74 0v680h433v-95h-326v-195h289v-93h-289v-202h340v-95h-447zM264 726l50 152h113l-85 -152h-78z" />
    <glyph glyph-name="Ecircumflex" unicode="&#xca;" horiz-adv-x="572" 
d="M74 0v680h433v-95h-326v-195h289v-93h-289v-202h340v-95h-447zM172 729l129 152h5l129 -152h-79l-52 43l-53 -43h-79z" />
    <glyph glyph-name="Edieresis" unicode="&#xcb;" horiz-adv-x="572" 
d="M74 0v680h433v-95h-326v-195h289v-93h-289v-202h340v-95h-447zM384 726c-29 0 -57 25 -57 57s28 57 57 57c30 0 57 -25 57 -57s-27 -57 -57 -57zM222 726c-29 0 -57 25 -57 57s28 57 57 57c30 0 57 -25 57 -57s-27 -57 -57 -57z" />
    <glyph glyph-name="Egrave" unicode="&#xc8;" horiz-adv-x="572" 
d="M74 0v680h433v-95h-326v-195h289v-93h-289v-202h340v-95h-447zM267 726l-85 152h113l50 -152h-78z" />
    <glyph glyph-name="Iacute" unicode="&#xcd;" horiz-adv-x="261" 
d="M77 0v680h107v-680h-107zM91 726l50 152h113l-85 -152h-78z" />
    <glyph glyph-name="Icircumflex" unicode="&#xce;" horiz-adv-x="261" 
d="M77 0v680h107v-680h-107zM-1 729l129 152h5l129 -152h-79l-52 43l-53 -43h-79z" />
    <glyph glyph-name="Idieresis" unicode="&#xcf;" horiz-adv-x="261" 
d="M77 0v680h107v-680h-107zM211 726c-29 0 -57 25 -57 57s28 57 57 57c30 0 57 -25 57 -57s-27 -57 -57 -57zM49 726c-29 0 -57 25 -57 57s28 57 57 57c30 0 57 -25 57 -57s-27 -57 -57 -57z" />
    <glyph glyph-name="Igrave" unicode="&#xcc;" horiz-adv-x="261" 
d="M77 0v680h107v-680h-107zM94 726l-85 152h113l50 -152h-78z" />
    <glyph glyph-name="Ntilde" unicode="&#xd1;" horiz-adv-x="691" 
d="M410 739c-49 0 -85 26 -112 26c-16 0 -23 -7 -29 -29l-68 9c9 62 42 102 89 102c49 0 85 -26 112 -26c16 0 23 7 29 29l68 -9c-9 -62 -42 -102 -89 -102zM610 -10l-436 457v-447h-100v690h8l436 -457v447h100v-690h-8z" />
    <glyph glyph-name="Oacute" unicode="&#xd3;" horiz-adv-x="784" 
d="M392 -9c-195 0 -351 148 -351 349s156 349 351 349s351 -148 351 -349s-156 -349 -351 -349zM392 88c141 0 240 108 240 252s-99 252 -240 252s-240 -108 -240 -252s99 -252 240 -252zM353 726l50 152h113l-85 -152h-78z" />
    <glyph glyph-name="Ocircumflex" unicode="&#xd4;" horiz-adv-x="784" 
d="M392 -9c-195 0 -351 148 -351 349s156 349 351 349s351 -148 351 -349s-156 -349 -351 -349zM392 88c141 0 240 108 240 252s-99 252 -240 252s-240 -108 -240 -252s99 -252 240 -252zM261 729l129 152h5l129 -152h-79l-52 43l-53 -43h-79z" />
    <glyph glyph-name="Odieresis" unicode="&#xd6;" horiz-adv-x="784" 
d="M392 -9c-195 0 -351 148 -351 349s156 349 351 349s351 -148 351 -349s-156 -349 -351 -349zM392 88c141 0 240 108 240 252s-99 252 -240 252s-240 -108 -240 -252s99 -252 240 -252zM473 726c-29 0 -57 25 -57 57s28 57 57 57c30 0 57 -25 57 -57s-27 -57 -57 -57z
M311 726c-29 0 -57 25 -57 57s28 57 57 57c30 0 57 -25 57 -57s-27 -57 -57 -57z" />
    <glyph glyph-name="Ograve" unicode="&#xd2;" horiz-adv-x="784" 
d="M392 -9c-195 0 -351 148 -351 349s156 349 351 349s351 -148 351 -349s-156 -349 -351 -349zM392 88c141 0 240 108 240 252s-99 252 -240 252s-240 -108 -240 -252s99 -252 240 -252zM356 726l-85 152h113l50 -152h-78z" />
    <glyph glyph-name="Otilde" unicode="&#xd5;" horiz-adv-x="784" 
d="M448 739c-49 0 -85 26 -112 26c-16 0 -23 -7 -29 -29l-68 9c9 62 42 102 89 102c49 0 85 -26 112 -26c16 0 23 7 29 29l68 -9c-9 -62 -42 -102 -89 -102zM392 -9c-195 0 -351 148 -351 349s156 349 351 349s351 -148 351 -349s-156 -349 -351 -349zM392 88
c141 0 240 108 240 252s-99 252 -240 252s-240 -108 -240 -252s99 -252 240 -252z" />
    <glyph glyph-name="Scaron" unicode="&#x160;" horiz-adv-x="531" 
d="M22 134l90 45c31 -59 84 -92 154 -92c72 0 120 34 120 89c0 64 -49 88 -109 115l-47 21c-100 44 -169 94 -169 200c0 104 79 177 195 177c94 0 157 -35 200 -107l-81 -53c-26 44 -63 66 -117 66c-58 0 -93 -32 -93 -79c0 -54 34 -73 108 -106l47 -21
c103 -46 172 -95 172 -210c0 -125 -96 -188 -225 -188c-116 0 -199 56 -245 143zM260 726l-129 152h79l52 -43l53 43h79l-129 -152h-5z" />
    <glyph glyph-name="Uacute" unicode="&#xda;" horiz-adv-x="659" 
d="M330 -9c-148 0 -260 83 -260 249v440h107v-434c0 -109 54 -158 153 -158c98 0 152 49 152 158v434h107v-440c0 -166 -112 -249 -259 -249zM290 726l50 152h113l-85 -152h-78z" />
    <glyph glyph-name="Ucircumflex" unicode="&#xdb;" horiz-adv-x="659" 
d="M330 -9c-148 0 -260 83 -260 249v440h107v-434c0 -109 54 -158 153 -158c98 0 152 49 152 158v434h107v-440c0 -166 -112 -249 -259 -249zM198 729l129 152h5l129 -152h-79l-52 43l-53 -43h-79z" />
    <glyph glyph-name="Udieresis" unicode="&#xdc;" horiz-adv-x="659" 
d="M330 -9c-148 0 -260 83 -260 249v440h107v-434c0 -109 54 -158 153 -158c98 0 152 49 152 158v434h107v-440c0 -166 -112 -249 -259 -249zM410 726c-29 0 -57 25 -57 57s28 57 57 57c30 0 57 -25 57 -57s-27 -57 -57 -57zM248 726c-29 0 -57 25 -57 57s28 57 57 57
c30 0 57 -25 57 -57s-27 -57 -57 -57z" />
    <glyph glyph-name="Ugrave" unicode="&#xd9;" horiz-adv-x="659" 
d="M330 -9c-148 0 -260 83 -260 249v440h107v-434c0 -109 54 -158 153 -158c98 0 152 49 152 158v434h107v-440c0 -166 -112 -249 -259 -249zM293 726l-85 152h113l50 -152h-78z" />
    <glyph glyph-name="Yacute" unicode="&#xdd;" horiz-adv-x="615" 
d="M257 271l-237 409h118l174 -305l171 305h112l-231 -408v-272h-107v271zM273 726l50 152h113l-85 -152h-78z" />
    <glyph glyph-name="Ydieresis" unicode="&#x178;" horiz-adv-x="615" 
d="M257 271l-237 409h118l174 -305l171 305h112l-231 -408v-272h-107v271zM393 726c-29 0 -57 25 -57 57s28 57 57 57c30 0 57 -25 57 -57s-27 -57 -57 -57zM231 726c-29 0 -57 25 -57 57s28 57 57 57c30 0 57 -25 57 -57s-27 -57 -57 -57z" />
    <glyph glyph-name="Zcaron" unicode="&#x17d;" horiz-adv-x="598" 
d="M29 0v6l359 579h-304v95h476v-6l-359 -579h348v-95h-520zM308 726l-129 152h79l52 -43l53 43h79l-129 -152h-5z" />
    <glyph glyph-name="aacute" unicode="&#xe1;" horiz-adv-x="380" 
d="M243 205c-1 46 -27 62 -63 62s-62 -14 -82 -37l-61 56c38 43 88 65 149 65c97 0 157 -50 157 -151v-200h-100v31c-23 -27 -56 -40 -96 -40c-69 0 -127 34 -127 114c0 67 59 100 134 100h89zM243 137h-84c-26 0 -40 -13 -40 -33c0 -19 13 -33 46 -33c45 0 78 24 78 52v14z
M152 396l50 152h113l-85 -152h-78z" />
    <glyph glyph-name="acircumflex" unicode="&#xe2;" horiz-adv-x="380" 
d="M243 205c-1 46 -27 62 -63 62s-62 -14 -82 -37l-61 56c38 43 88 65 149 65c97 0 157 -50 157 -151v-200h-100v31c-23 -27 -56 -40 -96 -40c-69 0 -127 34 -127 114c0 67 59 100 134 100h89zM243 137h-84c-26 0 -40 -13 -40 -33c0 -19 13 -33 46 -33c45 0 78 24 78 52v14z
M60 399l129 152h5l129 -152h-79l-52 43l-53 -43h-79z" />
    <glyph glyph-name="adieresis" unicode="&#xe4;" horiz-adv-x="380" 
d="M243 205c-1 46 -27 62 -63 62s-62 -14 -82 -37l-61 56c38 43 88 65 149 65c97 0 157 -50 157 -151v-200h-100v31c-23 -27 -56 -40 -96 -40c-69 0 -127 34 -127 114c0 67 59 100 134 100h89zM243 137h-84c-26 0 -40 -13 -40 -33c0 -19 13 -33 46 -33c45 0 78 24 78 52v14z
M272 410c-29 0 -57 25 -57 57s28 57 57 57c30 0 57 -25 57 -57s-27 -57 -57 -57zM110 410c-29 0 -57 25 -57 57s28 57 57 57c30 0 57 -25 57 -57s-27 -57 -57 -57z" />
    <glyph glyph-name="agrave" unicode="&#xe0;" horiz-adv-x="380" 
d="M243 205c-1 46 -27 62 -63 62s-62 -14 -82 -37l-61 56c38 43 88 65 149 65c97 0 157 -50 157 -151v-200h-100v31c-23 -27 -56 -40 -96 -40c-69 0 -127 34 -127 114c0 67 59 100 134 100h89zM243 137h-84c-26 0 -40 -13 -40 -33c0 -19 13 -33 46 -33c45 0 78 24 78 52v14z
M155 396l-85 152h113l50 -152h-78z" />
    <glyph glyph-name="aring" unicode="&#xe5;" horiz-adv-x="380" 
d="M243 205c-1 46 -27 62 -63 62s-62 -14 -82 -37l-61 56c38 43 88 65 149 65c97 0 157 -50 157 -151v-200h-100v31c-23 -27 -56 -40 -96 -40c-69 0 -127 34 -127 114c0 67 59 100 134 100h89zM243 137h-84c-26 0 -40 -13 -40 -33c0 -19 13 -33 46 -33c45 0 78 24 78 52v14z
M191 391c-51 0 -95 41 -95 89c0 49 44 90 95 90s95 -41 95 -90c0 -48 -44 -89 -95 -89zM191 445c19 0 33 13 33 35s-14 36 -33 36s-33 -14 -33 -36s14 -35 33 -35z" />
    <glyph glyph-name="atilde" unicode="&#xe3;" horiz-adv-x="380" 
d="M243 205c-1 46 -27 62 -63 62s-62 -14 -82 -37l-61 56c38 43 88 65 149 65c97 0 157 -50 157 -151v-200h-100v31c-23 -27 -56 -40 -96 -40c-69 0 -127 34 -127 114c0 67 59 100 134 100h89zM243 137h-84c-26 0 -40 -13 -40 -33c0 -19 13 -33 46 -33c45 0 78 24 78 52v14z
M239 408c-46 0 -64 28 -88 28c-12 0 -20 -5 -26 -27l-68 9c9 62 42 100 86 100c46 0 64 -28 88 -28c12 0 20 5 26 27l68 -9c-9 -62 -42 -100 -86 -100z" />
    <glyph glyph-name="ccedilla" unicode="&#xe7;" horiz-adv-x="372" 
d="M162 -4c-80 19 -136 87 -136 175c0 104 78 180 180 180c69 0 112 -24 143 -60l-66 -61c-17 19 -43 34 -74 34c-50 0 -80 -41 -80 -93s30 -93 82 -93c38 0 62 19 78 36l66 -60c-31 -36 -71 -60 -136 -63v-34c39 -6 68 -32 68 -80s-42 -77 -85 -77c-48 0 -78 22 -93 48
l51 31c6 -12 15 -21 33 -21c15 0 28 8 28 26c0 17 -11 27 -31 27h-28v85z" />
    <glyph glyph-name="eacute" unicode="&#xe9;" horiz-adv-x="416" 
d="M130 137c10 -38 39 -62 89 -62c44 0 70 17 89 33l60 -60c-31 -33 -76 -57 -147 -57c-119 0 -195 76 -195 180s81 180 185 180c120 0 188 -95 180 -214h-261zM131 207h155c-7 35 -32 60 -75 60c-41 0 -70 -21 -80 -60zM172 396l50 152h113l-85 -152h-78z" />
    <glyph glyph-name="ecircumflex" unicode="&#xea;" horiz-adv-x="416" 
d="M130 137c10 -38 39 -62 89 -62c44 0 70 17 89 33l60 -60c-31 -33 -76 -57 -147 -57c-119 0 -195 76 -195 180s81 180 185 180c120 0 188 -95 180 -214h-261zM131 207h155c-7 35 -32 60 -75 60c-41 0 -70 -21 -80 -60zM80 399l129 152h5l129 -152h-79l-52 43l-53 -43h-79z
" />
    <glyph glyph-name="edieresis" unicode="&#xeb;" horiz-adv-x="416" 
d="M130 137c10 -38 39 -62 89 -62c44 0 70 17 89 33l60 -60c-31 -33 -76 -57 -147 -57c-119 0 -195 76 -195 180s81 180 185 180c120 0 188 -95 180 -214h-261zM131 207h155c-7 35 -32 60 -75 60c-41 0 -70 -21 -80 -60zM292 410c-29 0 -57 25 -57 57s28 57 57 57
c30 0 57 -25 57 -57s-27 -57 -57 -57zM130 410c-29 0 -57 25 -57 57s28 57 57 57c30 0 57 -25 57 -57s-27 -57 -57 -57z" />
    <glyph glyph-name="egrave" unicode="&#xe8;" horiz-adv-x="416" 
d="M130 137c10 -38 39 -62 89 -62c44 0 70 17 89 33l60 -60c-31 -33 -76 -57 -147 -57c-119 0 -195 76 -195 180s81 180 185 180c120 0 188 -95 180 -214h-261zM131 207h155c-7 35 -32 60 -75 60c-41 0 -70 -21 -80 -60zM175 396l-85 152h113l50 -152h-78z" />
    <glyph glyph-name="iacute" unicode="&#xed;" 
d="M42 0v342h100v-342h-100zM53 396l50 152h113l-85 -152h-78z" />
    <glyph glyph-name="icircumflex" unicode="&#xee;" 
d="M42 0v342h100v-342h-100zM-39 399l129 152h5l129 -152h-79l-52 43l-53 -43h-79z" />
    <glyph glyph-name="idieresis" unicode="&#xef;" 
d="M42 0v342h100v-342h-100zM173 410c-29 0 -57 25 -57 57s28 57 57 57c30 0 57 -25 57 -57s-27 -57 -57 -57zM11 410c-29 0 -57 25 -57 57s28 57 57 57c30 0 57 -25 57 -57s-27 -57 -57 -57z" />
    <glyph glyph-name="igrave" unicode="&#xec;" 
d="M42 0v342h100v-342h-100zM56 396l-85 152h113l50 -152h-78z" />
    <glyph glyph-name="ntilde" unicode="&#xf1;" horiz-adv-x="410" 
d="M40 0v342h100v-44c22 37 59 53 107 53c76 0 129 -53 129 -144v-207h-100v200c0 38 -20 61 -61 61c-48 0 -75 -26 -75 -77v-184h-100zM256 408c-46 0 -64 28 -88 28c-12 0 -20 -5 -26 -27l-68 9c9 62 42 100 86 100c46 0 64 -28 88 -28c12 0 20 5 26 27l68 -9
c-9 -62 -42 -100 -86 -100z" />
    <glyph glyph-name="oacute" unicode="&#xf3;" horiz-adv-x="426" 
d="M213 -9c-105 0 -187 76 -187 180s82 180 187 180s187 -76 187 -180s-82 -180 -187 -180zM213 76c52 0 84 40 84 95s-32 95 -84 95s-84 -40 -84 -95s32 -95 84 -95zM174 396l50 152h113l-85 -152h-78z" />
    <glyph glyph-name="ocircumflex" unicode="&#xf4;" horiz-adv-x="426" 
d="M213 -9c-105 0 -187 76 -187 180s82 180 187 180s187 -76 187 -180s-82 -180 -187 -180zM213 76c52 0 84 40 84 95s-32 95 -84 95s-84 -40 -84 -95s32 -95 84 -95zM82 399l129 152h5l129 -152h-79l-52 43l-53 -43h-79z" />
    <glyph glyph-name="odieresis" unicode="&#xf6;" horiz-adv-x="426" 
d="M213 -9c-105 0 -187 76 -187 180s82 180 187 180s187 -76 187 -180s-82 -180 -187 -180zM213 76c52 0 84 40 84 95s-32 95 -84 95s-84 -40 -84 -95s32 -95 84 -95zM294 410c-29 0 -57 25 -57 57s28 57 57 57c30 0 57 -25 57 -57s-27 -57 -57 -57zM132 410
c-29 0 -57 25 -57 57s28 57 57 57c30 0 57 -25 57 -57s-27 -57 -57 -57z" />
    <glyph glyph-name="ograve" unicode="&#xf2;" horiz-adv-x="426" 
d="M213 -9c-105 0 -187 76 -187 180s82 180 187 180s187 -76 187 -180s-82 -180 -187 -180zM213 76c52 0 84 40 84 95s-32 95 -84 95s-84 -40 -84 -95s32 -95 84 -95zM177 396l-85 152h113l50 -152h-78z" />
    <glyph glyph-name="otilde" unicode="&#xf5;" horiz-adv-x="426" 
d="M213 -9c-105 0 -187 76 -187 180s82 180 187 180s187 -76 187 -180s-82 -180 -187 -180zM213 76c52 0 84 40 84 95s-32 95 -84 95s-84 -40 -84 -95s32 -95 84 -95zM261 408c-46 0 -64 28 -88 28c-12 0 -20 -5 -26 -27l-68 9c9 62 42 100 86 100c46 0 64 -28 88 -28
c12 0 20 5 26 27l68 -9c-9 -62 -42 -100 -86 -100z" />
    <glyph glyph-name="scaron" unicode="&#x161;" horiz-adv-x="327" 
d="M164 -9c-60 0 -115 21 -155 67l64 56c24 -29 55 -43 89 -43c36 0 50 11 50 25c0 16 -10 23 -66 35c-71 15 -113 49 -113 112c0 64 49 108 130 108c57 0 94 -20 126 -49l-54 -60c-17 17 -39 30 -69 30c-32 0 -43 -11 -43 -24c0 -17 13 -23 70 -34c77 -15 114 -54 114 -110
c0 -69 -49 -113 -143 -113zM159 396l-129 152h79l52 -43l53 43h79l-129 -152h-5z" />
    <glyph glyph-name="uacute" unicode="&#xfa;" horiz-adv-x="413" 
d="M166 -9c-76 0 -129 53 -129 144v207h100v-200c0 -38 20 -61 61 -61c48 0 75 26 75 77v184h100v-342h-100v44c-22 -37 -59 -53 -107 -53zM166 396l50 152h113l-85 -152h-78z" />
    <glyph glyph-name="ucircumflex" unicode="&#xfb;" horiz-adv-x="413" 
d="M166 -9c-76 0 -129 53 -129 144v207h100v-200c0 -38 20 -61 61 -61c48 0 75 26 75 77v184h100v-342h-100v44c-22 -37 -59 -53 -107 -53zM74 399l129 152h5l129 -152h-79l-52 43l-53 -43h-79z" />
    <glyph glyph-name="udieresis" unicode="&#xfc;" horiz-adv-x="413" 
d="M166 -9c-76 0 -129 53 -129 144v207h100v-200c0 -38 20 -61 61 -61c48 0 75 26 75 77v184h100v-342h-100v44c-22 -37 -59 -53 -107 -53zM286 410c-29 0 -57 25 -57 57s28 57 57 57c30 0 57 -25 57 -57s-27 -57 -57 -57zM124 410c-29 0 -57 25 -57 57s28 57 57 57
c30 0 57 -25 57 -57s-27 -57 -57 -57z" />
    <glyph glyph-name="ugrave" unicode="&#xf9;" horiz-adv-x="413" 
d="M166 -9c-76 0 -129 53 -129 144v207h100v-200c0 -38 20 -61 61 -61c48 0 75 26 75 77v184h100v-342h-100v44c-22 -37 -59 -53 -107 -53zM169 396l-85 152h113l50 -152h-78z" />
    <glyph glyph-name="yacute" unicode="&#xfd;" horiz-adv-x="379" 
d="M147 31l-144 311h112l82 -197l80 197h99l-231 -554h-100zM157 396l50 152h113l-85 -152h-78z" />
    <glyph glyph-name="ydieresis" unicode="&#xff;" horiz-adv-x="379" 
d="M147 31l-144 311h112l82 -197l80 197h99l-231 -554h-100zM277 410c-29 0 -57 25 -57 57s28 57 57 57c30 0 57 -25 57 -57s-27 -57 -57 -57zM115 410c-29 0 -57 25 -57 57s28 57 57 57c30 0 57 -25 57 -57s-27 -57 -57 -57z" />
    <glyph glyph-name="zcaron" unicode="&#x17e;" horiz-adv-x="346" 
d="M15 0v4l159 255h-136v83h289v-4l-158 -255h149v-83h-303zM176 396l-129 152h79l52 -43l53 43h79l-129 -152h-5z" />
    <glyph glyph-name="summation" unicode="&#x2211;" horiz-adv-x="585" 
d="M35 0v6l261 341l-265 327v6h489v-95h-292l191 -237v-6l-198 -247h313v-95h-499z" />
    <glyph glyph-name="uni00A0" unicode="&#xa0;" horiz-adv-x="182" 
 />
    <glyph glyph-name="Euro" unicode="&#x20ac;" horiz-adv-x="594" 
d="M84 291h-63v74h80c41 104 143 173 257 173c86 0 158 -34 201 -97l-72 -59c-32 46 -75 66 -129 66c-64 0 -116 -31 -145 -83h179v-74h-202c-1 -8 -1 -17 -1 -26c0 -8 0 -16 1 -24h202v-74h-180c28 -54 81 -86 146 -86c72 0 114 31 141 71l76 -56
c-46 -69 -116 -105 -217 -105c-115 0 -217 72 -257 176h-80v74h63c-1 8 -1 16 -1 24c0 9 0 17 1 26z" />
    <glyph glyph-name="space_uni0326" horiz-adv-x="500" 
d="M187 -251l33 92c-21 10 -36 32 -36 59c0 38 31 66 65 66c35 0 66 -28 66 -66c0 -24 -11 -42 -24 -64l-52 -87h-52z" />
    <glyph glyph-name="uni0237" unicode="&#x237;" 
d="M32 -222c-48 0 -76 17 -95 38l49 61c8 -7 18 -13 29 -13c17 0 27 9 27 31v447h100v-444c0 -77 -40 -120 -110 -120z" />
    <glyph glyph-name="Dcroat" unicode="&#x110;" horiz-adv-x="665" 
d="M74 297h-63v93h63v290h192c222 0 358 -139 358 -340s-135 -340 -358 -340h-192v297zM181 390h164v-93h-164v-202h79c176 0 253 101 253 245s-77 245 -253 245h-79v-195z" />
    <glyph glyph-name="dcroat" unicode="&#x111;" horiz-adv-x="445" 
d="M293 464h-83v83h83v163h100v-163h51v-83h-51v-464h-100v39c-19 -30 -54 -48 -106 -48c-89 0 -161 76 -161 180s72 180 161 180c52 0 87 -18 106 -48v161zM213 79c51 0 82 36 82 92s-31 92 -82 92s-84 -36 -84 -92s33 -92 84 -92z" />
    <glyph glyph-name="Abreve" unicode="&#x102;" horiz-adv-x="645" 
d="M511 0l-53 127h-276l-53 -127h-108l298 694h6l299 -694h-113zM321 459l-100 -238h198zM322 728c-73 0 -116 47 -127 105l80 12c6 -24 20 -39 47 -39s41 15 47 39l80 -12c-11 -58 -54 -105 -127 -105z" />
    <glyph glyph-name="Amacron" unicode="&#x100;" horiz-adv-x="645" 
d="M511 0l-53 127h-276l-53 -127h-108l298 694h6l299 -694h-113zM321 459l-100 -238h198zM201 737v76h242v-76h-242z" />
    <glyph glyph-name="Aogonek" unicode="&#x104;" horiz-adv-x="645" 
d="M551 -218c-57 0 -94 33 -94 88c0 56 40 98 77 130h-23l-53 127h-276l-53 -127h-108l298 694h6l296 -687c-50 -62 -74 -100 -74 -129c0 -17 10 -24 22 -24s22 6 28 13l47 -47c-23 -25 -46 -38 -93 -38zM321 459l-99 -237h197z" />
    <glyph glyph-name="Cacute" unicode="&#x106;" horiz-adv-x="710" 
d="M385 -9c-194 0 -344 148 -344 349s153 349 347 349c126 0 213 -49 272 -132l-82 -58c-45 61 -103 93 -193 93c-135 0 -233 -108 -233 -252c0 -147 100 -252 237 -252c88 0 153 33 204 99l83 -57c-70 -93 -159 -139 -291 -139zM338 726l50 152h113l-85 -152h-78z" />
    <glyph glyph-name="Ccaron" unicode="&#x10c;" horiz-adv-x="710" 
d="M385 -9c-194 0 -344 148 -344 349s153 349 347 349c126 0 213 -49 272 -132l-82 -58c-45 61 -103 93 -193 93c-135 0 -233 -108 -233 -252c0 -147 100 -252 237 -252c88 0 153 33 204 99l83 -57c-70 -93 -159 -139 -291 -139zM375 726l-129 152h79l52 -43l53 43h79
l-129 -152h-5z" />
    <glyph glyph-name="Ccircumflex" unicode="&#x108;" horiz-adv-x="710" 
d="M385 -9c-194 0 -344 148 -344 349s153 349 347 349c126 0 213 -49 272 -132l-82 -58c-45 61 -103 93 -193 93c-135 0 -233 -108 -233 -252c0 -147 100 -252 237 -252c88 0 153 33 204 99l83 -57c-70 -93 -159 -139 -291 -139zM246 729l129 152h5l129 -152h-79l-52 43
l-53 -43h-79z" />
    <glyph glyph-name="Cdotaccent" unicode="&#x10a;" horiz-adv-x="710" 
d="M385 -9c-194 0 -344 148 -344 349s153 349 347 349c126 0 213 -49 272 -132l-82 -58c-45 61 -103 93 -193 93c-135 0 -233 -108 -233 -252c0 -147 100 -252 237 -252c88 0 153 33 204 99l83 -57c-70 -93 -159 -139 -291 -139zM377 722c-33 0 -63 27 -63 63s30 63 63 63
c34 0 63 -27 63 -63s-29 -63 -63 -63z" />
    <glyph glyph-name="Dcaron" unicode="&#x10e;" horiz-adv-x="665" 
d="M74 0v680h192c222 0 358 -139 358 -340s-135 -340 -358 -340h-192zM181 95h79c176 0 253 101 253 245s-77 245 -253 245h-79v-490zM298 726l-129 152h79l52 -43l53 43h79l-129 -152h-5z" />
    <glyph glyph-name="Ecaron" unicode="&#x11a;" horiz-adv-x="572" 
d="M74 0v680h433v-95h-326v-195h289v-93h-289v-202h340v-95h-447zM301 726l-129 152h79l52 -43l53 43h79l-129 -152h-5z" />
    <glyph glyph-name="Edotaccent" unicode="&#x116;" horiz-adv-x="572" 
d="M74 0v680h433v-95h-326v-195h289v-93h-289v-202h340v-95h-447zM303 722c-33 0 -63 27 -63 63s30 63 63 63c34 0 63 -27 63 -63s-29 -63 -63 -63z" />
    <glyph glyph-name="Emacron" unicode="&#x112;" horiz-adv-x="572" 
d="M170 737v76h252v-76h-252zM74 0v680h433v-95h-326v-195h289v-93h-289v-202h340v-95h-447z" />
    <glyph glyph-name="Eogonek" unicode="&#x118;" horiz-adv-x="572" 
d="M74 0v680h433v-95h-326v-195h289v-93h-289v-202h340v-95h-50c-44 -55 -68 -93 -68 -122c0 -17 10 -24 22 -24s22 6 28 13l47 -47c-23 -25 -46 -38 -93 -38c-57 0 -94 33 -94 88c0 56 40 98 77 130h-316z" />
    <glyph glyph-name="Gbreve" unicode="&#x11e;" horiz-adv-x="723" 
d="M405 -9c-209 0 -364 148 -364 349s154 349 349 349c126 0 202 -45 258 -108l-74 -70c-41 45 -88 81 -187 81c-138 0 -235 -108 -235 -252s98 -252 253 -252c74 0 126 17 165 43v137h-182v95h281v-283c-57 -47 -136 -89 -264 -89zM376 728c-73 0 -116 47 -127 105l80 12
c6 -24 20 -39 47 -39s41 15 47 39l80 -12c-11 -58 -54 -105 -127 -105z" />
    <glyph glyph-name="Gcircumflex" unicode="&#x11c;" horiz-adv-x="723" 
d="M405 -9c-209 0 -364 148 -364 349s154 349 349 349c126 0 202 -45 258 -108l-74 -70c-41 45 -88 81 -187 81c-138 0 -235 -108 -235 -252s98 -252 253 -252c74 0 126 17 165 43v137h-182v95h281v-283c-57 -47 -136 -89 -264 -89zM245 729l129 152h5l129 -152h-79l-52 43
l-53 -43h-79z" />
    <glyph glyph-name="Gcommaaccent" unicode="&#x122;" horiz-adv-x="723" 
d="M405 -9c-209 0 -364 148 -364 349s154 349 349 349c126 0 202 -45 258 -108l-74 -70c-41 45 -88 81 -187 81c-138 0 -235 -108 -235 -252s98 -252 253 -252c74 0 126 17 165 43v137h-182v95h281v-283c-57 -47 -136 -89 -264 -89zM314 -251l33 92c-21 10 -36 32 -36 59
c0 38 31 66 65 66c35 0 66 -28 66 -66c0 -24 -11 -42 -24 -64l-52 -87h-52z" />
    <glyph glyph-name="Gdotaccent" unicode="&#x120;" horiz-adv-x="723" 
d="M405 -9c-209 0 -364 148 -364 349s154 349 349 349c126 0 202 -45 258 -108l-74 -70c-41 45 -88 81 -187 81c-138 0 -235 -108 -235 -252s98 -252 253 -252c74 0 126 17 165 43v137h-182v95h281v-283c-57 -47 -136 -89 -264 -89zM376 722c-33 0 -63 27 -63 63
s30 63 63 63c34 0 63 -27 63 -63s-29 -63 -63 -63z" />
    <glyph glyph-name="Hbar" unicode="&#x126;" horiz-adv-x="688" 
d="M14 470v82h60v128h107v-128h326v128h107v-128h60v-82h-60v-470h-107v284h-326v-284h-107v470h-60zM507 379v91h-326v-91h326z" />
    <glyph glyph-name="Hcircumflex" unicode="&#x124;" horiz-adv-x="688" 
d="M507 379v301h107v-680h-107v284h-326v-284h-107v680h107v-301h326zM213 729l129 152h5l129 -152h-79l-52 43l-53 -43h-79z" />
    <glyph glyph-name="Idotaccent" unicode="&#x130;" horiz-adv-x="261" 
d="M77 0v680h107v-680h-107zM130 722c-33 0 -63 27 -63 63s30 63 63 63c34 0 63 -27 63 -63s-29 -63 -63 -63z" />
    <glyph glyph-name="Imacron" unicode="&#x12a;" horiz-adv-x="261" 
d="M77 0v680h107v-680h-107zM24 737v76h212v-76h-212z" />
    <glyph glyph-name="Iogonek" unicode="&#x12e;" horiz-adv-x="261" 
d="M77 0v680h107v-671c-52 -62 -76 -102 -76 -131c0 -17 10 -24 22 -24s22 6 28 13l47 -47c-23 -25 -46 -38 -93 -38c-57 0 -94 33 -94 88c0 56 40 98 77 130h-18z" />
    <glyph glyph-name="Jcircumflex" unicode="&#x134;" horiz-adv-x="475" 
d="M212 -9c-104 0 -164 52 -197 116l88 54c24 -43 49 -73 105 -73c52 0 89 24 89 105v487h108v-489c0 -135 -81 -200 -193 -200zM218 729l129 152h5l129 -152h-79l-52 43l-53 -43h-79z" />
    <glyph glyph-name="Kcommaaccent" unicode="&#x136;" horiz-adv-x="616" 
d="M569 680l-241 -292l275 -388h-130l-216 307l-76 -90v-217h-107v680h107v-329l268 329h120zM245 -251l33 92c-21 10 -36 32 -36 59c0 38 31 66 65 66c35 0 66 -28 66 -66c0 -24 -11 -42 -24 -64l-52 -87h-52z" />
    <glyph glyph-name="Lacute" unicode="&#x139;" horiz-adv-x="515" 
d="M74 0v680h107v-585h300v-95h-407zM87 726l50 152h113l-85 -152h-78z" />
    <glyph glyph-name="Lcaron" unicode="&#x13d;" horiz-adv-x="515" 
d="M286 468l34 92c-21 10 -42 32 -42 62c0 39 32 67 68 67c35 0 67 -28 67 -66c0 -26 -9 -47 -23 -70l-53 -85h-51zM74 0v680h107v-585h300v-95h-407z" />
    <glyph glyph-name="Lcommaaccent" unicode="&#x13b;" horiz-adv-x="515" 
d="M74 0v680h107v-585h300v-95h-407zM223 -251l33 92c-21 10 -36 32 -36 59c0 38 31 66 65 66c35 0 66 -28 66 -66c0 -24 -11 -42 -24 -64l-52 -87h-52z" />
    <glyph glyph-name="Nacute" unicode="&#x143;" horiz-adv-x="691" 
d="M610 -10l-436 457v-447h-100v690h8l436 -457v447h100v-690h-8zM311 726l50 152h113l-85 -152h-78z" />
    <glyph glyph-name="Ncaron" unicode="&#x147;" horiz-adv-x="691" 
d="M610 -10l-436 457v-447h-100v690h8l436 -457v447h100v-690h-8zM348 726l-129 152h79l52 -43l53 43h79l-129 -152h-5z" />
    <glyph glyph-name="Ncommaaccent" unicode="&#x145;" horiz-adv-x="691" 
d="M610 -10l-436 457v-447h-100v690h8l436 -457v447h100v-690h-8zM288 -251l33 92c-21 10 -36 32 -36 59c0 38 31 66 65 66c35 0 66 -28 66 -66c0 -24 -11 -42 -24 -64l-52 -87h-52z" />
    <glyph glyph-name="Ohungarumlaut" unicode="&#x150;" horiz-adv-x="784" 
d="M392 -9c-195 0 -351 148 -351 349s156 349 351 349s351 -148 351 -349s-156 -349 -351 -349zM392 88c141 0 240 108 240 252s-99 252 -240 252s-240 -108 -240 -252s99 -252 240 -252zM420 726l45 152h101l-68 -152h-78zM280 726l45 152h101l-68 -152h-78z" />
    <glyph glyph-name="Omacron" unicode="&#x14c;" horiz-adv-x="784" 
d="M256 737v76h272v-76h-272zM392 -9c-195 0 -351 148 -351 349s156 349 351 349s351 -148 351 -349s-156 -349 -351 -349zM392 88c141 0 240 108 240 252s-99 252 -240 252s-240 -108 -240 -252s99 -252 240 -252z" />
    <glyph glyph-name="Racute" unicode="&#x154;" horiz-adv-x="598" 
d="M181 251v-251h-107v680h218c159 0 250 -87 250 -216c0 -95 -47 -163 -132 -194l164 -270h-117l-152 251h-13h-111zM181 343h107c101 0 143 40 143 121c0 82 -43 121 -143 121h-107v-242zM250 726l50 152h113l-85 -152h-78z" />
    <glyph glyph-name="Rcaron" unicode="&#x158;" horiz-adv-x="598" 
d="M181 251v-251h-107v680h218c159 0 250 -87 250 -216c0 -95 -47 -163 -132 -194l164 -270h-117l-152 251h-13h-111zM181 343h107c101 0 143 40 143 121c0 82 -43 121 -143 121h-107v-242zM287 726l-129 152h79l52 -43l53 43h79l-129 -152h-5z" />
    <glyph glyph-name="Rcommaaccent" unicode="&#x156;" horiz-adv-x="598" 
d="M181 251v-251h-107v680h218c159 0 250 -87 250 -216c0 -95 -47 -163 -132 -194l164 -270h-117l-152 251h-13h-111zM181 343h107c101 0 143 40 143 121c0 82 -43 121 -143 121h-107v-242zM227 -251l33 92c-21 10 -36 32 -36 59c0 38 31 66 65 66c35 0 66 -28 66 -66
c0 -24 -11 -42 -24 -64l-52 -87h-52z" />
    <glyph glyph-name="Sacute" unicode="&#x15a;" horiz-adv-x="531" 
d="M22 134l90 45c31 -59 84 -92 154 -92c72 0 120 34 120 89c0 64 -49 88 -109 115l-47 21c-100 44 -169 94 -169 200c0 104 79 177 195 177c94 0 157 -35 200 -107l-81 -53c-26 44 -63 66 -117 66c-58 0 -93 -32 -93 -79c0 -54 34 -73 108 -106l47 -21
c103 -46 172 -95 172 -210c0 -125 -96 -188 -225 -188c-116 0 -199 56 -245 143zM223 726l50 152h113l-85 -152h-78z" />
    <glyph glyph-name="Scedilla" unicode="&#x15e;" horiz-adv-x="531" 
d="M269 -200c-48 0 -78 22 -93 48l51 31c6 -12 15 -21 33 -21c15 0 28 8 28 26c0 17 -11 27 -31 27h-28v82c-97 11 -166 64 -207 141l90 45c31 -59 84 -92 154 -92c72 0 120 34 120 89c0 64 -49 88 -109 115l-47 21c-100 44 -169 94 -169 200c0 104 79 177 195 177
c94 0 157 -35 200 -107l-81 -53c-26 44 -63 66 -117 66c-58 0 -93 -32 -93 -79c0 -54 34 -73 108 -106l47 -21c103 -46 172 -95 172 -210c0 -119 -87 -181 -206 -187v-35c39 -6 68 -32 68 -80s-42 -77 -85 -77z" />
    <glyph glyph-name="Scircumflex" unicode="&#x15c;" horiz-adv-x="531" 
d="M22 134l90 45c31 -59 84 -92 154 -92c72 0 120 34 120 89c0 64 -49 88 -109 115l-47 21c-100 44 -169 94 -169 200c0 104 79 177 195 177c94 0 157 -35 200 -107l-81 -53c-26 44 -63 66 -117 66c-58 0 -93 -32 -93 -79c0 -54 34 -73 108 -106l47 -21
c103 -46 172 -95 172 -210c0 -125 -96 -188 -225 -188c-116 0 -199 56 -245 143zM131 729l129 152h5l129 -152h-79l-52 43l-53 -43h-79z" />
    <glyph glyph-name="Scommaaccent" unicode="&#x218;" horiz-adv-x="531" 
d="M22 134l90 45c31 -59 84 -92 154 -92c72 0 120 34 120 89c0 64 -49 88 -109 115l-47 21c-100 44 -169 94 -169 200c0 104 79 177 195 177c94 0 157 -35 200 -107l-81 -53c-26 44 -63 66 -117 66c-58 0 -93 -32 -93 -79c0 -54 34 -73 108 -106l47 -21
c103 -46 172 -95 172 -210c0 -125 -96 -188 -225 -188c-116 0 -199 56 -245 143zM200 -251l33 92c-21 10 -36 32 -36 59c0 38 31 66 65 66c35 0 66 -28 66 -66c0 -24 -11 -42 -24 -64l-52 -87h-52z" />
    <glyph glyph-name="Tcaron" unicode="&#x164;" horiz-adv-x="559" 
d="M226 0v585h-202v95h511v-95h-202v-585h-107zM277 726l-129 152h79l52 -43l53 43h79l-129 -152h-5z" />
    <glyph glyph-name="uni021A" unicode="&#x21a;" horiz-adv-x="559" 
d="M226 0v585h-202v95h511v-95h-202v-585h-25v-43c39 -6 68 -32 68 -80s-42 -77 -85 -77c-48 0 -78 22 -93 48l51 31c6 -12 15 -21 33 -21c15 0 28 8 28 26c0 17 -11 27 -31 27h-28v89h-25z" />
    <glyph glyph-name="Tcommaaccent" unicode="&#x162;" horiz-adv-x="559" 
d="M226 0v585h-202v95h511v-95h-202v-585h-107zM217 -251l33 92c-21 10 -36 32 -36 59c0 38 31 66 65 66c35 0 66 -28 66 -66c0 -24 -11 -42 -24 -64l-52 -87h-52z" />
    <glyph glyph-name="Ubreve" unicode="&#x16c;" horiz-adv-x="659" 
d="M330 -9c-148 0 -260 83 -260 249v440h107v-434c0 -109 54 -158 153 -158c98 0 152 49 152 158v434h107v-440c0 -166 -112 -249 -259 -249zM329 728c-73 0 -116 47 -127 105l80 12c6 -24 20 -39 47 -39s41 15 47 39l80 -12c-11 -58 -54 -105 -127 -105z" />
    <glyph glyph-name="Uhungarumlaut" unicode="&#x170;" horiz-adv-x="659" 
d="M330 -9c-148 0 -260 83 -260 249v440h107v-434c0 -109 54 -158 153 -158c98 0 152 49 152 158v434h107v-440c0 -166 -112 -249 -259 -249zM357 726l45 152h101l-68 -152h-78zM217 726l45 152h101l-68 -152h-78z" />
    <glyph glyph-name="Umacron" unicode="&#x16a;" horiz-adv-x="659" 
d="M223 737v76h212v-76h-212zM330 -9c-148 0 -260 83 -260 249v440h107v-434c0 -109 54 -158 153 -158c98 0 152 49 152 158v434h107v-440c0 -166 -112 -249 -259 -249z" />
    <glyph glyph-name="Uogonek" unicode="&#x172;" horiz-adv-x="659" 
d="M371 -218c-57 0 -94 33 -94 88c0 51 31 90 65 121h-12c-148 0 -260 83 -260 249v440h107v-434c0 -109 54 -158 153 -158c98 0 152 49 152 158v434h107v-440c0 -79 -25 -138 -68 -179c-67 -64 -154 -104 -154 -183c0 -17 10 -24 22 -24s22 6 28 13l47 -47
c-23 -25 -46 -38 -93 -38z" />
    <glyph glyph-name="Uring" unicode="&#x16e;" horiz-adv-x="659" 
d="M330 -9c-148 0 -260 83 -260 249v440h107v-434c0 -109 54 -158 153 -158c98 0 152 49 152 158v434h107v-440c0 -166 -112 -249 -259 -249zM329 691c-51 0 -95 41 -95 89c0 49 44 90 95 90s95 -41 95 -90c0 -48 -44 -89 -95 -89zM329 745c19 0 33 13 33 35s-14 36 -33 36
s-33 -14 -33 -36s14 -35 33 -35z" />
    <glyph glyph-name="Zacute" unicode="&#x179;" horiz-adv-x="598" 
d="M29 0v6l359 579h-304v95h476v-6l-359 -579h348v-95h-520zM271 726l50 152h113l-85 -152h-78z" />
    <glyph glyph-name="Zdotaccent" unicode="&#x17b;" horiz-adv-x="598" 
d="M29 0v6l359 579h-304v95h476v-6l-359 -579h348v-95h-520zM310 722c-33 0 -63 27 -63 63s30 63 63 63c34 0 63 -27 63 -63s-29 -63 -63 -63z" />
    <glyph glyph-name="abreve" unicode="&#x103;" horiz-adv-x="380" 
d="M243 205c-1 46 -27 62 -63 62s-62 -14 -82 -37l-61 56c38 43 88 65 149 65c97 0 157 -50 157 -151v-200h-100v31c-23 -27 -56 -40 -96 -40c-69 0 -127 34 -127 114c0 67 59 100 134 100h89zM243 137h-84c-26 0 -40 -13 -40 -33c0 -19 13 -33 46 -33c45 0 78 24 78 52v14z
M191 398c-73 0 -116 47 -127 105l80 12c6 -24 20 -39 47 -39s41 15 47 39l80 -12c-11 -58 -54 -105 -127 -105z" />
    <glyph glyph-name="amacron" unicode="&#x101;" horiz-adv-x="380" 
d="M243 205c-1 46 -27 62 -63 62s-62 -14 -82 -37l-61 56c38 43 88 65 149 65c97 0 157 -50 157 -151v-200h-100v31c-23 -27 -56 -40 -96 -40c-69 0 -127 34 -127 114c0 67 59 100 134 100h89zM243 137h-84c-26 0 -40 -13 -40 -33c0 -19 13 -33 46 -33c45 0 78 24 78 52v14z
M85 421v76h212v-76h-212z" />
    <glyph glyph-name="aogonek" unicode="&#x105;" horiz-adv-x="380" 
d="M273 -218c-57 0 -94 33 -94 88c0 50 31 88 64 119v42c-23 -27 -56 -40 -96 -40c-69 0 -127 34 -127 114c0 67 59 100 134 100h89c-1 46 -27 62 -63 62s-62 -14 -82 -37l-61 56c38 43 88 65 149 65c97 0 157 -50 157 -151v-192c-50 -62 -74 -101 -74 -130
c0 -17 10 -24 22 -24s22 6 28 13l47 -47c-23 -25 -46 -38 -93 -38zM243 137h-84c-26 0 -40 -13 -40 -33c0 -19 13 -33 46 -33c45 0 78 24 78 52v14z" />
    <glyph glyph-name="cacute" unicode="&#x107;" horiz-adv-x="377" 
d="M208 -9c-104 0 -182 76 -182 180s78 180 180 180c69 0 112 -24 143 -60l-66 -61c-17 19 -43 34 -74 34c-50 0 -80 -41 -80 -93s30 -93 82 -93c38 0 62 19 78 36l66 -60c-33 -38 -75 -63 -147 -63zM161 396l50 152h113l-85 -152h-78z" />
    <glyph glyph-name="ccaron" unicode="&#x10d;" horiz-adv-x="377" 
d="M208 -9c-104 0 -182 76 -182 180s78 180 180 180c69 0 112 -24 143 -60l-66 -61c-17 19 -43 34 -74 34c-50 0 -80 -41 -80 -93s30 -93 82 -93c38 0 62 19 78 36l66 -60c-33 -38 -75 -63 -147 -63zM198 396l-129 152h79l52 -43l53 43h79l-129 -152h-5z" />
    <glyph glyph-name="ccircumflex" unicode="&#x109;" horiz-adv-x="377" 
d="M208 -9c-104 0 -182 76 -182 180s78 180 180 180c69 0 112 -24 143 -60l-66 -61c-17 19 -43 34 -74 34c-50 0 -80 -41 -80 -93s30 -93 82 -93c38 0 62 19 78 36l66 -60c-33 -38 -75 -63 -147 -63zM69 399l129 152h5l129 -152h-79l-52 43l-53 -43h-79z" />
    <glyph glyph-name="cdotaccent" unicode="&#x10b;" horiz-adv-x="377" 
d="M208 -9c-104 0 -182 76 -182 180s78 180 180 180c69 0 112 -24 143 -60l-66 -61c-17 19 -43 34 -74 34c-50 0 -80 -41 -80 -93s30 -93 82 -93c38 0 62 19 78 36l66 -60c-33 -38 -75 -63 -147 -63zM200 406c-33 0 -63 27 -63 63s30 63 63 63c34 0 63 -27 63 -63
s-29 -63 -63 -63z" />
    <glyph glyph-name="dcaron" unicode="&#x10f;" horiz-adv-x="435" 
d="M445 468l34 92c-21 10 -42 32 -42 62c0 39 32 67 68 67c35 0 67 -28 67 -66c0 -26 -9 -47 -23 -70l-53 -85h-51zM187 -9c-89 0 -161 76 -161 180s72 180 161 180c52 0 87 -18 106 -48v407h100v-710h-100v39c-19 -30 -54 -48 -106 -48zM213 79c51 0 82 36 82 92
s-31 92 -82 92s-84 -36 -84 -92s33 -92 84 -92z" />
    <glyph glyph-name="ecaron" unicode="&#x11b;" horiz-adv-x="416" 
d="M130 137c10 -38 39 -62 89 -62c44 0 70 17 89 33l60 -60c-31 -33 -76 -57 -147 -57c-119 0 -195 76 -195 180s81 180 185 180c120 0 188 -95 180 -214h-261zM131 207h155c-7 35 -32 60 -75 60c-41 0 -70 -21 -80 -60zM209 396l-129 152h79l52 -43l53 43h79l-129 -152h-5z
" />
    <glyph glyph-name="edotaccent" unicode="&#x117;" horiz-adv-x="416" 
d="M130 137c10 -38 39 -62 89 -62c44 0 70 17 89 33l60 -60c-31 -33 -76 -57 -147 -57c-119 0 -195 76 -195 180s81 180 185 180c120 0 188 -95 180 -214h-261zM131 207h155c-7 35 -32 60 -75 60c-41 0 -70 -21 -80 -60zM211 406c-33 0 -63 27 -63 63s30 63 63 63
c34 0 63 -27 63 -63s-29 -63 -63 -63z" />
    <glyph glyph-name="emacron" unicode="&#x113;" horiz-adv-x="416" 
d="M130 137c10 -38 39 -62 89 -62c44 0 70 17 89 33l60 -60c-31 -33 -76 -57 -147 -57c-119 0 -195 76 -195 180s81 180 185 180c120 0 188 -95 180 -214h-261zM131 207h155c-7 35 -32 60 -75 60c-41 0 -70 -21 -80 -60zM105 421v76h212v-76h-212z" />
    <glyph glyph-name="eogonek" unicode="&#x119;" horiz-adv-x="416" 
d="M250 -218c-57 0 -94 33 -94 88c0 51 39 91 74 121h-9c-119 0 -195 76 -195 180s81 180 185 180c120 0 188 -95 180 -214h-261c10 -38 39 -62 89 -62c44 0 70 17 89 33l60 -60c-49 -52 -122 -116 -122 -170c0 -17 10 -24 22 -24s22 6 28 13l47 -47
c-23 -25 -46 -38 -93 -38zM131 207h155c-7 35 -32 60 -75 60c-41 0 -70 -21 -80 -60z" />
    <glyph glyph-name="gbreve" unicode="&#x11f;" horiz-adv-x="435" 
d="M210 -222c-83 0 -141 34 -180 105l78 44c23 -41 56 -64 98 -64c54 0 87 30 87 94v82c-19 -30 -54 -48 -106 -48c-89 0 -161 76 -161 180s72 180 161 180c52 0 87 -18 106 -48v39h100v-385c0 -113 -67 -179 -183 -179zM213 79c51 0 82 36 82 92s-31 92 -82 92
s-84 -36 -84 -92s33 -92 84 -92zM217 398c-73 0 -116 47 -127 105l80 12c6 -24 20 -39 47 -39s41 15 47 39l80 -12c-11 -58 -54 -105 -127 -105z" />
    <glyph glyph-name="gcircumflex" unicode="&#x11d;" horiz-adv-x="435" 
d="M210 -222c-83 0 -141 34 -180 105l78 44c23 -41 56 -64 98 -64c54 0 87 30 87 94v82c-19 -30 -54 -48 -106 -48c-89 0 -161 76 -161 180s72 180 161 180c52 0 87 -18 106 -48v39h100v-385c0 -113 -67 -179 -183 -179zM213 79c51 0 82 36 82 92s-31 92 -82 92
s-84 -36 -84 -92s33 -92 84 -92zM86 399l129 152h5l129 -152h-79l-52 43l-53 -43h-79z" />
    <glyph glyph-name="gcommaaccent" unicode="&#x123;" horiz-adv-x="435" 
d="M210 -222c-83 0 -141 34 -180 105l78 44c23 -41 56 -64 98 -64c54 0 87 30 87 94v82c-19 -30 -54 -48 -106 -48c-89 0 -161 76 -161 180s72 180 161 180c52 0 87 -18 106 -48v39h100v-385c0 -113 -67 -179 -183 -179zM213 79c51 0 82 36 82 92s-31 92 -82 92
s-84 -36 -84 -92s33 -92 84 -92zM279 620l-33 -92c21 -10 36 -32 36 -59c0 -38 -31 -66 -65 -66c-35 0 -66 28 -66 66c0 24 11 42 24 64l52 87h52z" />
    <glyph glyph-name="gdotaccent" unicode="&#x121;" horiz-adv-x="435" 
d="M210 -222c-83 0 -141 34 -180 105l78 44c23 -41 56 -64 98 -64c54 0 87 30 87 94v82c-19 -30 -54 -48 -106 -48c-89 0 -161 76 -161 180s72 180 161 180c52 0 87 -18 106 -48v39h100v-385c0 -113 -67 -179 -183 -179zM213 79c51 0 82 36 82 92s-31 92 -82 92
s-84 -36 -84 -92s33 -92 84 -92zM217 406c-33 0 -63 27 -63 63s30 63 63 63c34 0 63 -27 63 -63s-29 -63 -63 -63z" />
    <glyph glyph-name="hbar" unicode="&#x127;" horiz-adv-x="413" 
d="M-11 464v83h51v163h100v-163h83v-83h-83v-166c22 36 59 53 107 53c76 0 129 -53 129 -144v-207h-100v200c0 38 -20 61 -61 61c-48 0 -75 -26 -75 -77v-184h-100v464h-51z" />
    <glyph glyph-name="hcircumflex" unicode="&#x125;" horiz-adv-x="413" 
d="M40 0v710h100v-412c22 36 59 53 107 53c76 0 129 -53 129 -144v-207h-100v200c0 38 -20 61 -61 61c-48 0 -75 -26 -75 -77v-184h-100zM59 748l129 152h5l129 -152h-79l-52 43l-53 -43h-79z" />
    <glyph glyph-name="idotaccent" 
d="M92 436c-33 0 -63 27 -63 63s30 63 63 63c34 0 63 -27 63 -63s-29 -63 -63 -63zM42 0v342h100v-342h-100z" />
    <glyph glyph-name="imacron" unicode="&#x12b;" 
d="M42 0v342h100v-342h-100zM3 421v76h178v-76h-178z" />
    <glyph glyph-name="iogonek" unicode="&#x12f;" 
d="M-15 -130c0 50 25 88 57 118v354h100v-334c-50 -63 -67 -101 -67 -130c0 -17 10 -24 22 -24s22 6 28 13l47 -47c-23 -25 -46 -38 -93 -38c-57 0 -94 33 -94 88zM92 406c-33 0 -63 27 -63 63s30 63 63 63c34 0 63 -27 63 -63s-29 -63 -63 -63z" />
    <glyph glyph-name="jcircumflex" unicode="&#x135;" 
d="M32 -222c-48 0 -76 17 -95 38l49 61c8 -7 18 -13 29 -13c17 0 27 9 27 31v447h100v-444c0 -77 -40 -120 -110 -120zM-40 399l129 152h5l129 -152h-79l-52 43l-53 -43h-79z" />
    <glyph glyph-name="kcommaaccent" unicode="&#x137;" horiz-adv-x="389" 
d="M140 82v-82h-100v710h100v-501l112 133h116l-122 -140l136 -202h-119l-84 126zM132 -251l33 92c-21 10 -36 32 -36 59c0 38 31 66 65 66c35 0 66 -28 66 -66c0 -24 -11 -42 -24 -64l-52 -87h-52z" />
    <glyph glyph-name="lacute" unicode="&#x13a;" 
d="M42 0v710h100v-710h-100zM53 748l50 152h113l-85 -152h-78z" />
    <glyph glyph-name="lcaron" unicode="&#x13e;" 
d="M190 468l34 92c-21 10 -42 32 -42 62c0 39 32 67 68 67c35 0 67 -28 67 -66c0 -26 -9 -47 -23 -70l-53 -85h-51zM42 0v710h100v-710h-100z" />
    <glyph glyph-name="lcommaaccent" unicode="&#x13c;" 
d="M42 0v710h100v-710h-100zM30 -251l33 92c-21 10 -36 32 -36 59c0 38 31 66 65 66c35 0 66 -28 66 -66c0 -24 -11 -42 -24 -64l-52 -87h-52z" />
    <glyph glyph-name="nacute" unicode="&#x144;" horiz-adv-x="410" 
d="M40 0v342h100v-44c22 37 59 53 107 53c76 0 129 -53 129 -144v-207h-100v200c0 38 -20 61 -61 61c-48 0 -75 -26 -75 -77v-184h-100zM169 396l50 152h113l-85 -152h-78z" />
    <glyph glyph-name="ncaron" unicode="&#x148;" horiz-adv-x="410" 
d="M40 0v342h100v-44c22 37 59 53 107 53c76 0 129 -53 129 -144v-207h-100v200c0 38 -20 61 -61 61c-48 0 -75 -26 -75 -77v-184h-100zM206 396l-129 152h79l52 -43l53 43h79l-129 -152h-5z" />
    <glyph glyph-name="ncommaaccent" unicode="&#x146;" horiz-adv-x="410" 
d="M40 0v342h100v-44c22 37 59 53 107 53c76 0 129 -53 129 -144v-207h-100v200c0 38 -20 61 -61 61c-48 0 -75 -26 -75 -77v-184h-100zM146 -251l33 92c-21 10 -36 32 -36 59c0 38 31 66 65 66c35 0 66 -28 66 -66c0 -24 -11 -42 -24 -64l-52 -87h-52z" />
    <glyph glyph-name="ohungarumlaut" unicode="&#x151;" horiz-adv-x="426" 
d="M213 -9c-105 0 -187 76 -187 180s82 180 187 180s187 -76 187 -180s-82 -180 -187 -180zM213 76c52 0 84 40 84 95s-32 95 -84 95s-84 -40 -84 -95s32 -95 84 -95zM241 396l45 152h101l-68 -152h-78zM101 396l45 152h101l-68 -152h-78z" />
    <glyph glyph-name="omacron" unicode="&#x14d;" horiz-adv-x="426" 
d="M213 -9c-105 0 -187 76 -187 180s82 180 187 180s187 -76 187 -180s-82 -180 -187 -180zM213 76c52 0 84 40 84 95s-32 95 -84 95s-84 -40 -84 -95s32 -95 84 -95zM107 421v76h212v-76h-212z" />
    <glyph glyph-name="racute" unicode="&#x155;" horiz-adv-x="302" 
d="M40 0v342h100v-53c23 47 62 62 98 62c24 0 41 -7 54 -15l-32 -86c-13 7 -26 11 -43 11c-48 0 -77 -29 -77 -100v-161h-100zM128 396l50 152h113l-85 -152h-78z" />
    <glyph glyph-name="rcaron" unicode="&#x159;" horiz-adv-x="302" 
d="M40 0v342h100v-53c23 47 62 62 98 62c24 0 41 -7 54 -15l-32 -86c-13 7 -26 11 -43 11c-48 0 -77 -29 -77 -100v-161h-100zM165 396l-129 152h79l52 -43l53 43h79l-129 -152h-5z" />
    <glyph glyph-name="rcommaaccent" unicode="&#x157;" horiz-adv-x="302" 
d="M40 0v342h100v-53c23 47 62 62 98 62c24 0 41 -7 54 -15l-32 -86c-13 7 -26 11 -43 11c-48 0 -77 -29 -77 -100v-161h-100zM29 -251l33 92c-21 10 -36 32 -36 59c0 38 31 66 65 66c35 0 66 -28 66 -66c0 -24 -11 -42 -24 -64l-52 -87h-52z" />
    <glyph glyph-name="sacute" unicode="&#x15b;" horiz-adv-x="327" 
d="M164 -9c-60 0 -115 21 -155 67l64 56c24 -29 55 -43 89 -43c36 0 50 11 50 25c0 16 -10 23 -66 35c-71 15 -113 49 -113 112c0 64 49 108 130 108c57 0 94 -20 126 -49l-54 -60c-17 17 -39 30 -69 30c-32 0 -43 -11 -43 -24c0 -17 13 -23 70 -34c77 -15 114 -54 114 -110
c0 -69 -49 -113 -143 -113zM122 396l50 152h113l-85 -152h-78z" />
    <glyph glyph-name="scedilla" unicode="&#x15f;" horiz-adv-x="327" 
d="M168 -200c-48 0 -78 22 -93 48l51 31c6 -12 15 -21 33 -21c15 0 28 8 28 26c0 17 -11 27 -31 27h-28v83c-46 6 -87 27 -119 64l64 56c24 -29 55 -43 89 -43c36 0 50 11 50 25c0 16 -10 23 -66 35c-71 15 -113 49 -113 112c0 64 49 108 130 108c57 0 94 -20 126 -49
l-54 -60c-17 17 -39 30 -69 30c-32 0 -43 -11 -43 -24c0 -17 13 -23 70 -34c77 -15 114 -54 114 -110c0 -64 -42 -106 -122 -112v-35c39 -6 68 -32 68 -80s-42 -77 -85 -77z" />
    <glyph glyph-name="scircumflex" unicode="&#x15d;" horiz-adv-x="327" 
d="M164 -9c-60 0 -115 21 -155 67l64 56c24 -29 55 -43 89 -43c36 0 50 11 50 25c0 16 -10 23 -66 35c-71 15 -113 49 -113 112c0 64 49 108 130 108c57 0 94 -20 126 -49l-54 -60c-17 17 -39 30 -69 30c-32 0 -43 -11 -43 -24c0 -17 13 -23 70 -34c77 -15 114 -54 114 -110
c0 -69 -49 -113 -143 -113zM30 399l129 152h5l129 -152h-79l-52 43l-53 -43h-79z" />
    <glyph glyph-name="scommaaccent" unicode="&#x219;" horiz-adv-x="327" 
d="M164 -9c-60 0 -115 21 -155 67l64 56c24 -29 55 -43 89 -43c36 0 50 11 50 25c0 16 -10 23 -66 35c-71 15 -113 49 -113 112c0 64 49 108 130 108c57 0 94 -20 126 -49l-54 -60c-17 17 -39 30 -69 30c-32 0 -43 -11 -43 -24c0 -17 13 -23 70 -34c77 -15 114 -54 114 -110
c0 -69 -49 -113 -143 -113zM99 -251l33 92c-21 10 -36 32 -36 59c0 38 31 66 65 66c35 0 66 -28 66 -66c0 -24 -11 -42 -24 -64l-52 -87h-52z" />
    <glyph glyph-name="tcaron" unicode="&#x165;" horiz-adv-x="268" 
d="M210 468l34 92c-21 10 -42 32 -42 62c0 39 32 67 68 67c35 0 67 -28 67 -66c0 -26 -9 -47 -23 -70l-53 -85h-51zM59 259h-40v83h40v123h100v-123h80v-83h-80v-139c0 -35 11 -43 29 -43c12 0 22 6 30 12l39 -70c-17 -14 -44 -28 -86 -28c-65 0 -112 32 -112 127v141z" />
    <glyph glyph-name="uni021B" unicode="&#x21b;" horiz-adv-x="268" 
d="M59 259h-40v83h40v123h100v-123h80v-83h-80v-139c0 -35 11 -43 29 -43c12 0 22 6 30 12l39 -70c-17 -14 -43 -27 -82 -28v-34c39 -6 68 -32 68 -80s-42 -77 -85 -77c-48 0 -78 22 -93 48l51 31c6 -12 15 -21 33 -21c15 0 28 8 28 26c0 17 -11 27 -31 27h-28v89
c-36 16 -59 51 -59 118v141z" />
    <glyph glyph-name="tcommaaccent" unicode="&#x163;" horiz-adv-x="268" 
d="M59 259h-40v83h40v123h100v-123h80v-83h-80v-139c0 -35 11 -43 29 -43c12 0 22 6 30 12l39 -70c-17 -14 -44 -28 -86 -28c-65 0 -112 32 -112 127v141zM84 -251l33 92c-21 10 -36 32 -36 59c0 38 31 66 65 66c35 0 66 -28 66 -66c0 -24 -11 -42 -24 -64l-52 -87h-52z" />
    <glyph glyph-name="ubreve" unicode="&#x16d;" horiz-adv-x="413" 
d="M166 -9c-76 0 -129 53 -129 144v207h100v-200c0 -38 20 -61 61 -61c48 0 75 26 75 77v184h100v-342h-100v44c-22 -37 -59 -53 -107 -53zM205 398c-73 0 -116 47 -127 105l80 12c6 -24 20 -39 47 -39s41 15 47 39l80 -12c-11 -58 -54 -105 -127 -105z" />
    <glyph glyph-name="uhungarumlaut" unicode="&#x171;" horiz-adv-x="413" 
d="M166 -9c-76 0 -129 53 -129 144v207h100v-200c0 -38 20 -61 61 -61c48 0 75 26 75 77v184h100v-342h-100v44c-22 -37 -59 -53 -107 -53zM233 396l45 152h101l-68 -152h-78zM93 396l45 152h101l-68 -152h-78z" />
    <glyph glyph-name="umacron" unicode="&#x16b;" horiz-adv-x="413" 
d="M166 -9c-76 0 -129 53 -129 144v207h100v-200c0 -38 20 -61 61 -61c48 0 75 26 75 77v184h100v-342h-100v44c-22 -37 -59 -53 -107 -53zM99 421v76h212v-76h-212z" />
    <glyph glyph-name="uogonek" unicode="&#x173;" horiz-adv-x="413" 
d="M303 -218c-57 0 -94 33 -94 88c0 50 31 88 64 119v55c-22 -37 -59 -53 -107 -53c-76 0 -129 53 -129 144v207h100v-200c0 -38 20 -61 61 -61c48 0 75 26 75 77v184h100v-335c-50 -62 -74 -100 -74 -129c0 -17 10 -24 22 -24s22 6 28 13l47 -47c-23 -25 -46 -38 -93 -38z
" />
    <glyph glyph-name="uring" unicode="&#x16f;" horiz-adv-x="413" 
d="M166 -9c-76 0 -129 53 -129 144v207h100v-200c0 -38 20 -61 61 -61c48 0 75 26 75 77v184h100v-342h-100v44c-22 -37 -59 -53 -107 -53zM205 391c-51 0 -95 41 -95 89c0 49 44 90 95 90s95 -41 95 -90c0 -48 -44 -89 -95 -89zM205 445c19 0 33 13 33 35s-14 36 -33 36
s-33 -14 -33 -36s14 -35 33 -35z" />
    <glyph glyph-name="zacute" unicode="&#x17a;" horiz-adv-x="346" 
d="M15 0v4l159 255h-136v83h289v-4l-158 -255h149v-83h-303zM139 396l50 152h113l-85 -152h-78z" />
    <glyph glyph-name="zdotaccent" unicode="&#x17c;" horiz-adv-x="346" 
d="M15 0v4l159 255h-136v83h289v-4l-158 -255h149v-83h-303zM178 406c-33 0 -63 27 -63 63s30 63 63 63c34 0 63 -27 63 -63s-29 -63 -63 -63z" />
    <glyph glyph-name="L_A" horiz-adv-x="1146" 
d="M1012 0l-53 127h-276l-53 -127h-108l298 694h6l299 -694h-113zM74 0v680h107v-585h304l-41 -95h-370zM822 459l-99 -237h197z" />
    <glyph glyph-name="one.superior" unicode="&#xb9;" horiz-adv-x="357" 
d="M136 402v212h-56v66h135v-278h-79z" />
    <glyph glyph-name="two.superior" unicode="&#xb2;" horiz-adv-x="357" 
d="M55 402v10l99 106c33 36 49 55 49 75c0 16 -13 26 -30 26c-23 0 -36 -18 -41 -36l-70 26c17 47 56 79 116 79c70 0 109 -38 109 -87c0 -38 -27 -68 -67 -110l-24 -25h97v-64h-238z" />
    <glyph glyph-name="three.superior" unicode="&#xb3;" horiz-adv-x="357" 
d="M59 457l58 32c10 -23 29 -38 57 -38c26 0 45 15 45 43c0 30 -25 41 -51 41c-17 0 -31 -3 -43 -8l-5 9l67 84h-106v60h215v-7l-80 -95c40 -7 77 -34 77 -84c0 -58 -37 -103 -115 -103c-63 0 -100 30 -119 66z" />
    <glyph glyph-name="G.alt" horiz-adv-x="766" 
d="M393 -9c-202 0 -352 148 -352 349s158 349 352 349c126 0 218 -49 277 -137l-80 -60c-42 62 -100 100 -199 100c-139 0 -239 -108 -239 -252s95 -253 240 -253c139 0 206 78 219 175h-192v95h307c9 -218 -108 -366 -333 -366z" />
    <glyph glyph-name="K.alt" horiz-adv-x="597" 
d="M181 680v-322l269 322h121l-275 -325l293 -355h-130l-278 339v-339h-107v680h107z" />
    <glyph glyph-name="M.alt" horiz-adv-x="832" 
d="M66 0l75 694h6l269 -417l269 417h6l75 -694h-104l-44 421l-202 -317h-4l-203 317l-44 -421h-99z" />
    <glyph glyph-name="Q.alt" horiz-adv-x="784" 
d="M648 98l101 -113l-75 -63l-104 115c-52 -30 -113 -46 -178 -46c-195 0 -351 148 -351 349s156 349 351 349s351 -148 351 -349c0 -96 -36 -180 -95 -242zM503 112l-78 87l76 64l79 -89c34 43 52 100 52 166c0 144 -99 252 -240 252s-240 -108 -240 -252s99 -252 240 -252
c42 0 79 8 111 24z" />
    <glyph glyph-name="Q.alt1" horiz-adv-x="784" 
d="M441 5c42 -43 70 -66 123 -66c37 0 67 24 83 40l68 -69c-33 -38 -83 -68 -146 -68c-96 0 -160 58 -218 114c-40 38 -76 70 -123 70c-52 0 -86 -23 -111 -54l-68 65c20 27 48 51 88 65c-59 59 -96 142 -96 239c0 201 156 348 351 348s351 -147 351 -348
c0 -184 -130 -315 -302 -336zM392 94c141 0 240 103 240 247s-99 251 -240 251s-240 -107 -240 -251s99 -247 240 -247z" />
    <glyph glyph-name="W.alt" horiz-adv-x="904" 
d="M405 412l-118 268h107l62 -144l59 144h101l-110 -258l90 -209l182 467h105l-283 -690h-8l-138 311l-133 -311h-8l-292 690h111l192 -467z" />
    <glyph glyph-name="AE.alt" horiz-adv-x="927" 
d="M514 0l-53 127h-282l-53 -127h-105l293 680h379v-95h-321l84 -195h286v-93h-246l87 -202h318v-95h-387zM320 463l-101 -241h202z" />
    <glyph glyph-name="a.alt" horiz-adv-x="431" 
d="M185 -9c-89 0 -159 76 -159 180s70 180 159 180c52 0 85 -18 104 -48v39h100v-342h-100v39c-19 -30 -52 -48 -104 -48zM211 79c51 0 80 36 80 92s-29 92 -80 92s-82 -36 -82 -92s31 -92 82 -92z" />
    <glyph glyph-name="g.alt" horiz-adv-x="395" 
d="M243 342h125v-76h-49c8 -15 14 -32 14 -51c0 -79 -62 -136 -146 -136c-25 0 -48 5 -67 13c-5 -5 -9 -12 -9 -22c0 -19 10 -28 90 -32c129 -7 174 -54 174 -128c0 -77 -56 -133 -182 -133c-122 0 -188 50 -188 121c0 48 26 75 67 89c-29 13 -44 41 -44 71
c0 32 17 56 47 70c-21 23 -34 53 -34 87c0 79 62 136 146 136c21 0 40 -3 56 -9zM187 158c36 0 59 23 59 57s-23 57 -59 57s-59 -23 -59 -57s23 -57 59 -57zM193 -138c59 0 83 18 83 45s-20 42 -99 42c-50 0 -79 -10 -79 -42c0 -28 33 -45 95 -45z" />
    <glyph glyph-name="k.alt" horiz-adv-x="383" 
d="M140 147v-147h-100v710h100v-502l115 134h112l-136 -159l151 -183h-122z" />
    <glyph glyph-name="u.alt" horiz-adv-x="404" 
d="M198 -9c-106 0 -161 60 -161 162v189h100v-186c0 -52 19 -78 65 -78s65 26 65 78v186h100v-189c0 -102 -63 -162 -169 -162z" />
    <glyph glyph-name="Adieresis.alt" horiz-adv-x="645" 
d="M511 0l-53 127h-276l-53 -127h-108l298 694h6l299 -694h-113zM321 459l-100 -238h198zM161 575c-29 0 -57 25 -57 57s28 57 57 57c30 0 57 -25 57 -57s-27 -57 -57 -57zM483 575c-29 0 -57 25 -57 57s28 57 57 57c30 0 57 -25 57 -57s-27 -57 -57 -57z" />
    <glyph glyph-name="Aring.alt" horiz-adv-x="645" 
d="M321 464l-100 -243h198zM322 645c19 0 33 13 33 35s-14 36 -33 36s-33 -14 -33 -36s14 -35 33 -35zM511 0l-53 127h-276l-53 -127h-108l259 601c-32 15 -53 45 -53 79c0 49 44 90 95 90s95 -41 95 -90c0 -34 -22 -64 -53 -79l260 -601h-113z" />
    <glyph glyph-name="Gbreve.alt" horiz-adv-x="766" 
d="M393 -9c-202 0 -352 148 -352 349s158 349 352 349c126 0 218 -49 277 -137l-80 -60c-42 62 -100 100 -199 100c-139 0 -239 -108 -239 -252s95 -253 240 -253c139 0 206 78 219 175h-192v95h307c9 -218 -108 -366 -333 -366zM388 728c-73 0 -116 47 -127 105l80 12
c6 -24 20 -39 47 -39s41 15 47 39l80 -12c-11 -58 -54 -105 -127 -105z" />
    <glyph glyph-name="Gcircumflex.alt" horiz-adv-x="766" 
d="M393 -9c-202 0 -352 148 -352 349s158 349 352 349c126 0 218 -49 277 -137l-80 -60c-42 62 -100 100 -199 100c-139 0 -239 -108 -239 -252s95 -253 240 -253c139 0 206 78 219 175h-192v95h307c9 -218 -108 -366 -333 -366zM257 729l129 152h5l129 -152h-79l-52 43
l-53 -43h-79z" />
    <glyph glyph-name="Gcommaaccent.alt" horiz-adv-x="766" 
d="M393 -9c-202 0 -352 148 -352 349s158 349 352 349c126 0 218 -49 277 -137l-80 -60c-42 62 -100 100 -199 100c-139 0 -239 -108 -239 -252s95 -253 240 -253c139 0 206 78 219 175h-192v95h307c9 -218 -108 -366 -333 -366zM326 -251l33 92c-21 10 -36 32 -36 59
c0 38 31 66 65 66c35 0 66 -28 66 -66c0 -24 -11 -42 -24 -64l-52 -87h-52z" />
    <glyph glyph-name="Gdotaccent.alt" horiz-adv-x="766" 
d="M393 -9c-202 0 -352 148 -352 349s158 349 352 349c126 0 218 -49 277 -137l-80 -60c-42 62 -100 100 -199 100c-139 0 -239 -108 -239 -252s95 -253 240 -253c139 0 206 78 219 175h-192v95h307c9 -218 -108 -366 -333 -366zM388 722c-33 0 -63 27 -63 63s30 63 63 63
c34 0 63 -27 63 -63s-29 -63 -63 -63z" />
    <glyph glyph-name="Kcommaaccent.alt" horiz-adv-x="597" 
d="M181 680v-322l269 322h121l-275 -325l293 -355h-130l-278 339v-339h-107v680h107zM240 -251l33 92c-21 10 -36 32 -36 59c0 38 31 66 65 66c35 0 66 -28 66 -66c0 -24 -11 -42 -24 -64l-52 -87h-52z" />
    <glyph glyph-name="Odieresis.alt" horiz-adv-x="784" 
d="M124 575c-29 0 -57 25 -57 57s28 57 57 57c30 0 57 -25 57 -57c0 -4 -1 -8 -1 -11c58 43 132 68 212 68s153 -25 212 -69c-1 4 -1 8 -1 12c0 32 28 57 57 57c30 0 57 -25 57 -57s-27 -57 -57 -57h-5c55 -61 88 -143 88 -235c0 -201 -156 -349 -351 -349
s-351 148 -351 349c0 92 33 174 88 235h-5zM392 88c141 0 240 108 240 252s-99 252 -240 252s-240 -108 -240 -252s99 -252 240 -252z" />
    <glyph glyph-name="Udieresis.alt" horiz-adv-x="659" 
d="M395 583c-26 0 -51 22 -51 51s25 51 51 51c27 0 51 -22 51 -51s-24 -51 -51 -51zM263 583c-26 0 -51 22 -51 51s25 51 51 51c27 0 51 -22 51 -51s-24 -51 -51 -51zM330 -9c-148 0 -260 83 -260 249v440h107v-434c0 -109 54 -158 153 -158c98 0 152 49 152 158v434h107
v-440c0 -166 -112 -249 -259 -249z" />
    <glyph glyph-name="Ydieresis.alt" horiz-adv-x="615" 
d="M372 587c-25 0 -49 21 -49 49s24 49 49 49c26 0 50 -21 50 -49s-24 -49 -50 -49zM251 587c-25 0 -50 21 -50 49s25 49 50 49c26 0 49 -21 49 -49s-23 -49 -49 -49zM257 271l-237 409h118l174 -305l171 305h112l-231 -408v-272h-107v271z" />
    <glyph glyph-name="aacute.alt" horiz-adv-x="431" 
d="M185 -9c-89 0 -159 76 -159 180s70 180 159 180c52 0 85 -18 104 -48v39h100v-342h-100v39c-19 -30 -52 -48 -104 -48zM211 79c51 0 80 36 80 92s-29 92 -80 92s-82 -36 -82 -92s31 -92 82 -92zM181 396l50 152h113l-85 -152h-78z" />
    <glyph glyph-name="abreve.alt" horiz-adv-x="431" 
d="M185 -9c-89 0 -159 76 -159 180s70 180 159 180c52 0 85 -18 104 -48v39h100v-342h-100v39c-19 -30 -52 -48 -104 -48zM211 79c51 0 80 36 80 92s-29 92 -80 92s-82 -36 -82 -92s31 -92 82 -92zM220 398c-73 0 -116 47 -127 105l80 12c6 -24 20 -39 47 -39s41 15 47 39
l80 -12c-11 -58 -54 -105 -127 -105z" />
    <glyph glyph-name="acircumflex.alt" horiz-adv-x="431" 
d="M185 -9c-89 0 -159 76 -159 180s70 180 159 180c52 0 85 -18 104 -48v39h100v-342h-100v39c-19 -30 -52 -48 -104 -48zM211 79c51 0 80 36 80 92s-29 92 -80 92s-82 -36 -82 -92s31 -92 82 -92zM89 399l129 152h5l129 -152h-79l-52 43l-53 -43h-79z" />
    <glyph glyph-name="adieresis.alt" horiz-adv-x="431" 
d="M185 -9c-89 0 -159 76 -159 180s70 180 159 180c52 0 85 -18 104 -48v39h100v-342h-100v39c-19 -30 -52 -48 -104 -48zM211 79c51 0 80 36 80 92s-29 92 -80 92s-82 -36 -82 -92s31 -92 82 -92zM301 410c-29 0 -57 25 -57 57s28 57 57 57c30 0 57 -25 57 -57
s-27 -57 -57 -57zM139 410c-29 0 -57 25 -57 57s28 57 57 57c30 0 57 -25 57 -57s-27 -57 -57 -57z" />
    <glyph glyph-name="agrave.alt" horiz-adv-x="431" 
d="M185 -9c-89 0 -159 76 -159 180s70 180 159 180c52 0 85 -18 104 -48v39h100v-342h-100v39c-19 -30 -52 -48 -104 -48zM211 79c51 0 80 36 80 92s-29 92 -80 92s-82 -36 -82 -92s31 -92 82 -92zM184 396l-85 152h113l50 -152h-78z" />
    <glyph glyph-name="amacron.alt" horiz-adv-x="431" 
d="M185 -9c-89 0 -159 76 -159 180s70 180 159 180c52 0 85 -18 104 -48v39h100v-342h-100v39c-19 -30 -52 -48 -104 -48zM211 79c51 0 80 36 80 92s-29 92 -80 92s-82 -36 -82 -92s31 -92 82 -92zM114 421v76h212v-76h-212z" />
    <glyph glyph-name="aogonek.alt" horiz-adv-x="431" 
d="M318 -218c-57 0 -94 33 -94 88c0 50 32 89 65 120v49c-19 -30 -52 -48 -104 -48c-89 0 -159 76 -159 180s70 180 159 180c52 0 85 -18 104 -48v39h100v-333c-51 -64 -75 -102 -75 -131c0 -17 10 -24 22 -24s22 6 28 13l47 -47c-23 -25 -46 -38 -93 -38zM211 79
c51 0 80 36 80 92s-29 92 -80 92s-82 -36 -82 -92s31 -92 82 -92z" />
    <glyph glyph-name="aring.alt" horiz-adv-x="431" 
d="M185 -9c-89 0 -159 76 -159 180s70 180 159 180c52 0 85 -18 104 -48v39h100v-342h-100v39c-19 -30 -52 -48 -104 -48zM211 79c51 0 80 36 80 92s-29 92 -80 92s-82 -36 -82 -92s31 -92 82 -92zM220 391c-51 0 -95 41 -95 89c0 49 44 90 95 90s95 -41 95 -90
c0 -48 -44 -89 -95 -89zM220 445c19 0 33 13 33 35s-14 36 -33 36s-33 -14 -33 -36s14 -35 33 -35z" />
    <glyph glyph-name="atilde.alt" horiz-adv-x="431" 
d="M185 -9c-89 0 -159 76 -159 180s70 180 159 180c52 0 85 -18 104 -48v39h100v-342h-100v39c-19 -30 -52 -48 -104 -48zM211 79c51 0 80 36 80 92s-29 92 -80 92s-82 -36 -82 -92s31 -92 82 -92zM268 408c-46 0 -64 28 -88 28c-12 0 -20 -5 -26 -27l-68 9
c9 62 42 100 86 100c46 0 64 -28 88 -28c12 0 20 5 26 27l68 -9c-9 -62 -42 -100 -86 -100z" />
    <glyph glyph-name="gbreve.alt" horiz-adv-x="395" 
d="M243 342h125v-76h-49c8 -15 14 -32 14 -51c0 -79 -62 -136 -146 -136c-25 0 -48 5 -67 13c-5 -5 -9 -12 -9 -22c0 -19 10 -28 90 -32c129 -7 174 -54 174 -128c0 -77 -56 -133 -182 -133c-122 0 -188 50 -188 121c0 48 26 75 67 89c-29 13 -44 41 -44 71
c0 32 17 56 47 70c-21 23 -34 53 -34 87c0 79 62 136 146 136c21 0 40 -3 56 -9zM187 158c36 0 59 23 59 57s-23 57 -59 57s-59 -23 -59 -57s23 -57 59 -57zM193 -138c59 0 83 18 83 45s-20 42 -99 42c-50 0 -79 -10 -79 -42c0 -28 33 -45 95 -45zM197 398
c-73 0 -116 47 -127 105l80 12c6 -24 20 -39 47 -39s41 15 47 39l80 -12c-11 -58 -54 -105 -127 -105z" />
    <glyph glyph-name="gcircumflex.alt" horiz-adv-x="395" 
d="M243 342h125v-76h-49c8 -15 14 -32 14 -51c0 -79 -62 -136 -146 -136c-25 0 -48 5 -67 13c-5 -5 -9 -12 -9 -22c0 -19 10 -28 90 -32c129 -7 174 -54 174 -128c0 -77 -56 -133 -182 -133c-122 0 -188 50 -188 121c0 48 26 75 67 89c-29 13 -44 41 -44 71
c0 32 17 56 47 70c-21 23 -34 53 -34 87c0 79 62 136 146 136c21 0 40 -3 56 -9zM187 158c36 0 59 23 59 57s-23 57 -59 57s-59 -23 -59 -57s23 -57 59 -57zM193 -138c59 0 83 18 83 45s-20 42 -99 42c-50 0 -79 -10 -79 -42c0 -28 33 -45 95 -45zM66 399l129 152h5
l129 -152h-79l-52 43l-53 -43h-79z" />
    <glyph glyph-name="gcommaaccent.alt" horiz-adv-x="395" 
d="M243 342h125v-76h-49c8 -15 14 -32 14 -51c0 -79 -62 -136 -146 -136c-25 0 -48 5 -67 13c-5 -5 -9 -12 -9 -22c0 -19 10 -28 90 -32c129 -7 174 -54 174 -128c0 -77 -56 -133 -182 -133c-122 0 -188 50 -188 121c0 48 26 75 67 89c-29 13 -44 41 -44 71
c0 32 17 56 47 70c-21 23 -34 53 -34 87c0 79 62 136 146 136c21 0 40 -3 56 -9zM187 158c36 0 59 23 59 57s-23 57 -59 57s-59 -23 -59 -57s23 -57 59 -57zM193 -138c59 0 83 18 83 45s-20 42 -99 42c-50 0 -79 -10 -79 -42c0 -28 33 -45 95 -45zM258 620l-33 -92
c21 -10 36 -32 36 -59c0 -38 -31 -66 -65 -66c-35 0 -66 28 -66 66c0 24 11 42 24 64l52 87h52z" />
    <glyph glyph-name="gdotaccent.alt" horiz-adv-x="395" 
d="M243 342h125v-76h-49c8 -15 14 -32 14 -51c0 -79 -62 -136 -146 -136c-25 0 -48 5 -67 13c-5 -5 -9 -12 -9 -22c0 -19 10 -28 90 -32c129 -7 174 -54 174 -128c0 -77 -56 -133 -182 -133c-122 0 -188 50 -188 121c0 48 26 75 67 89c-29 13 -44 41 -44 71
c0 32 17 56 47 70c-21 23 -34 53 -34 87c0 79 62 136 146 136c21 0 40 -3 56 -9zM187 158c36 0 59 23 59 57s-23 57 -59 57s-59 -23 -59 -57s23 -57 59 -57zM193 -138c59 0 83 18 83 45s-20 42 -99 42c-50 0 -79 -10 -79 -42c0 -28 33 -45 95 -45zM197 406
c-33 0 -63 27 -63 63s30 63 63 63c34 0 63 -27 63 -63s-29 -63 -63 -63z" />
    <glyph glyph-name="kcommaaccent.alt" horiz-adv-x="383" 
d="M140 147v-147h-100v710h100v-502l115 134h112l-136 -159l151 -183h-122zM129 -251l33 92c-21 10 -36 32 -36 59c0 38 31 66 65 66c35 0 66 -28 66 -66c0 -24 -11 -42 -24 -64l-52 -87h-52z" />
    <glyph glyph-name="uacute.alt" horiz-adv-x="404" 
d="M198 -9c-106 0 -161 60 -161 162v189h100v-186c0 -52 19 -78 65 -78s65 26 65 78v186h100v-189c0 -102 -63 -162 -169 -162zM163 396l50 152h113l-85 -152h-78z" />
    <glyph glyph-name="ubreve.alt" horiz-adv-x="404" 
d="M198 -9c-106 0 -161 60 -161 162v189h100v-186c0 -52 19 -78 65 -78s65 26 65 78v186h100v-189c0 -102 -63 -162 -169 -162zM202 398c-73 0 -116 47 -127 105l80 12c6 -24 20 -39 47 -39s41 15 47 39l80 -12c-11 -58 -54 -105 -127 -105z" />
    <glyph glyph-name="ucircumflex.alt" horiz-adv-x="404" 
d="M198 -9c-106 0 -161 60 -161 162v189h100v-186c0 -52 19 -78 65 -78s65 26 65 78v186h100v-189c0 -102 -63 -162 -169 -162zM71 399l129 152h5l129 -152h-79l-52 43l-53 -43h-79z" />
    <glyph glyph-name="udieresis.alt" horiz-adv-x="404" 
d="M198 -9c-106 0 -161 60 -161 162v189h100v-186c0 -52 19 -78 65 -78s65 26 65 78v186h100v-189c0 -102 -63 -162 -169 -162zM283 410c-29 0 -57 25 -57 57s28 57 57 57c30 0 57 -25 57 -57s-27 -57 -57 -57zM121 410c-29 0 -57 25 -57 57s28 57 57 57c30 0 57 -25 57 -57
s-27 -57 -57 -57z" />
    <glyph glyph-name="ugrave.alt" horiz-adv-x="404" 
d="M198 -9c-106 0 -161 60 -161 162v189h100v-186c0 -52 19 -78 65 -78s65 26 65 78v186h100v-189c0 -102 -63 -162 -169 -162zM166 396l-85 152h113l50 -152h-78z" />
    <glyph glyph-name="uhungarumlaut.alt" horiz-adv-x="404" 
d="M198 -9c-106 0 -161 60 -161 162v189h100v-186c0 -52 19 -78 65 -78s65 26 65 78v186h100v-189c0 -102 -63 -162 -169 -162zM230 396l45 152h101l-68 -152h-78zM90 396l45 152h101l-68 -152h-78z" />
    <glyph glyph-name="umacron.alt" horiz-adv-x="404" 
d="M198 -9c-106 0 -161 60 -161 162v189h100v-186c0 -52 19 -78 65 -78s65 26 65 78v186h100v-189c0 -102 -63 -162 -169 -162zM96 421v76h212v-76h-212z" />
    <glyph glyph-name="uogonek.alt" horiz-adv-x="404" 
d="M222 -218c-57 0 -94 33 -94 88c0 51 33 88 71 121c-108 1 -162 60 -162 162v189h100v-186c0 -52 19 -78 65 -78s65 26 65 78v186h100v-189c0 -84 -41 -122 -76 -154c-45 -42 -73 -92 -73 -121c0 -17 10 -24 22 -24s22 6 28 13l47 -47c-23 -25 -46 -38 -93 -38z" />
    <glyph glyph-name="uring.alt" horiz-adv-x="404" 
d="M198 -9c-106 0 -161 60 -161 162v189h100v-186c0 -52 19 -78 65 -78s65 26 65 78v186h100v-189c0 -102 -63 -162 -169 -162zM202 391c-51 0 -95 41 -95 89c0 49 44 90 95 90s95 -41 95 -90c0 -48 -44 -89 -95 -89zM202 445c19 0 33 13 33 35s-14 36 -33 36
s-33 -14 -33 -36s14 -35 33 -35z" />
    <glyph glyph-name="f_b.alt" horiz-adv-x="660" 
d="M159 342h64v-83h-64v-259h-100v259h-40v83h40v226c0 100 74 150 154 150c86 0 154 -48 154 -151v-264c19 30 54 48 106 48c89 0 161 -76 161 -180s-72 -180 -161 -180c-52 0 -87 18 -106 48v-39h-100v568c0 36 -15 65 -54 65c-40 0 -54 -26 -54 -62v-229zM447 79
c51 0 84 36 84 92s-33 92 -84 92s-82 -36 -82 -92s31 -92 82 -92z" />
    <glyph glyph-name="f_f_b.alt" horiz-adv-x="868" 
d="M159 259v-259h-100v259h-40v83h40v249c0 86 45 127 110 127c41 0 65 -10 85 -24l-42 -74c-7 6 -14 10 -28 10c-13 0 -25 -10 -25 -38v-250h108v226c0 100 74 150 154 150c86 0 154 -48 154 -151v-264c19 30 54 48 106 48c89 0 161 -76 161 -180s-72 -180 -161 -180
c-52 0 -87 18 -106 48v-39h-100v568c0 36 -15 65 -54 65c-40 0 -54 -26 -54 -62v-229h64v-83h-64v-259h-100v259h-108zM655 79c51 0 84 36 84 92s-33 92 -84 92s-82 -36 -82 -92s31 -92 82 -92z" />
    <glyph glyph-name="f_f_h.alt" horiz-adv-x="848" 
d="M159 259v-259h-100v259h-40v83h40v249c0 86 45 127 110 127c41 0 65 -10 85 -24l-42 -74c-7 6 -14 10 -28 10c-13 0 -25 -10 -25 -38v-250h108v226c0 100 74 150 154 150c86 0 154 -48 154 -151v-269c22 36 59 53 107 53c76 0 129 -53 129 -144v-207h-100v200
c0 38 -20 61 -61 61c-48 0 -75 -26 -75 -77v-184h-100v568c0 36 -15 65 -54 65c-40 0 -54 -26 -54 -62v-229h64v-83h-64v-259h-100v259h-108z" />
    <glyph glyph-name="f_f_k.alt" horiz-adv-x="818" 
d="M575 147v-147h-100v568c0 36 -15 65 -54 65c-40 0 -54 -26 -54 -62v-229h64v-83h-64v-259h-100v259h-108v-259h-100v259h-40v83h40v249c0 86 45 127 110 127c41 0 65 -10 85 -24l-42 -74c-7 6 -14 10 -28 10c-13 0 -25 -10 -25 -38v-250h108v226c0 100 74 150 154 150
c86 0 154 -48 154 -151v-359l115 134h112l-136 -159l151 -183h-122z" />
    <glyph glyph-name="ffl.alt" horiz-adv-x="617" 
d="M367 259v-259h-100v259h-108v-259h-100v259h-40v83h40v249c0 86 45 127 110 127c41 0 65 -10 85 -24l-42 -74c-7 6 -14 10 -28 10c-13 0 -25 -10 -25 -38v-250h108v226c0 100 74 150 154 150c86 0 154 -48 154 -151v-567h-100v568c0 36 -15 65 -54 65
c-40 0 -54 -26 -54 -62v-229h64v-83h-64z" />
    <glyph glyph-name="f_h.alt" horiz-adv-x="640" 
d="M159 342h64v-83h-64v-259h-100v259h-40v83h40v226c0 100 74 150 154 150c86 0 154 -48 154 -151v-269c22 36 59 53 107 53c76 0 129 -53 129 -144v-207h-100v200c0 38 -20 61 -61 61c-48 0 -75 -26 -75 -77v-184h-100v568c0 36 -15 65 -54 65c-40 0 -54 -26 -54 -62v-229
z" />
    <glyph glyph-name="f_k.alt" horiz-adv-x="610" 
d="M367 147v-147h-100v568c0 36 -15 65 -54 65c-40 0 -54 -26 -54 -62v-229h64v-83h-64v-259h-100v259h-40v83h40v226c0 100 74 150 154 150c86 0 154 -48 154 -151v-359l115 134h112l-136 -159l151 -183h-122z" />
    <glyph glyph-name="fl.alt" horiz-adv-x="409" 
d="M159 259v-259h-100v259h-40v83h40v226c0 100 74 150 154 150c86 0 154 -48 154 -151v-567h-100v568c0 36 -15 65 -54 65c-40 0 -54 -26 -54 -62v-229h64v-83h-64z" />
    <glyph glyph-name="space.up" horiz-adv-x="222" 
 />
    <glyph glyph-name="dollar.up" horiz-adv-x="521" 
d="M296 -116h-73v109c-101 11 -171 66 -208 139l85 48c31 -53 62 -88 123 -97v229c-99 44 -172 100 -172 204c0 90 71 162 172 172v85h73v-88c69 -11 113 -49 147 -106l-81 -52c-18 31 -37 53 -66 64v-199c113 -51 186 -102 186 -211c0 -113 -74 -177 -186 -188v-109z
M378 178c0 48 -36 76 -82 100v-193c53 11 82 45 82 93zM154 520c0 -45 23 -70 69 -94v171c-45 -8 -69 -40 -69 -77z" />
    <glyph glyph-name="Euro.up" horiz-adv-x="780" 
d="M455 -9c-160 0 -290 100 -331 247h-87v78h75c-1 8 -1 16 -1 24c0 9 0 18 1 28h-75v78h89c43 145 174 243 332 243c126 0 213 -49 272 -132l-82 -58c-45 61 -103 93 -193 93c-99 0 -178 -59 -213 -146h297v-78h-316c-1 -9 -1 -19 -1 -28v-24h317v-78h-299
c34 -92 116 -150 219 -150c88 0 153 33 204 99l83 -57c-70 -93 -159 -139 -291 -139z" />
    <glyph glyph-name="sterling.up" horiz-adv-x="568" 
d="M63 290v77h67c-16 38 -29 80 -29 129c0 109 89 193 214 193c105 0 175 -56 205 -122l-86 -50c-25 52 -59 81 -120 81c-59 0 -105 -31 -105 -102c0 -44 13 -87 28 -129h186v-77h-156c13 -38 24 -75 24 -113c0 -23 -3 -44 -8 -63c29 -18 62 -33 106 -33s71 18 99 48l66 -61
c-50 -57 -97 -77 -165 -77c-65 0 -109 24 -145 51c-29 -33 -71 -51 -122 -51c-65 0 -112 38 -112 96s46 97 107 97c32 0 57 -7 80 -17c0 45 -14 84 -32 123h-102zM180 94c-16 11 -33 19 -53 19c-26 0 -37 -12 -37 -26s10 -26 36 -26c23 0 42 11 54 33z" />
    <glyph glyph-name="yen.up" horiz-adv-x="599" 
d="M249 268h-183v78h146l-194 334h118l168 -295l165 295h112l-189 -334h146v-78h-182v-51h182v-78h-182v-139h-107v139h-183v78h183v51z" />
    <glyph glyph-name="florin.up" horiz-adv-x="356" 
d="M89 240h-51v83h60l27 236c10 88 54 130 123 130c54 0 81 -17 105 -45l-61 -64c-9 13 -18 21 -34 21c-17 0 -29 -9 -33 -41l-27 -237h78v-83h-87l-52 -452h-100z" />
    <glyph glyph-name="zero.up" horiz-adv-x="660" 
d="M330 -9c-147 0 -286 109 -286 349s139 349 286 349c146 0 286 -109 286 -349s-140 -349 -286 -349zM330 87c98 0 175 75 175 253s-77 253 -175 253s-175 -75 -175 -253s77 -253 175 -253z" />
    <glyph glyph-name="one.up" horiz-adv-x="316" 
d="M131 0v585h-107v95h214v-680h-107z" />
    <glyph glyph-name="two.up" horiz-adv-x="544" 
d="M18 0v6l287 304c62 65 85 115 85 170c0 62 -40 112 -121 112c-63 0 -114 -43 -136 -114l-94 35c33 114 119 176 232 176c138 0 227 -86 227 -205c0 -80 -39 -152 -113 -229l-153 -160h270v-95h-484z" />
    <glyph glyph-name="three.up" horiz-adv-x="556" 
d="M279 -9c-128 0 -215 59 -261 146l90 47c30 -53 76 -96 167 -96c92 0 144 52 144 133c0 80 -62 133 -165 133c-42 0 -77 -9 -95 -14l-6 9l184 236h-261v95h441v-6l-188 -240c111 -17 199 -94 199 -218c0 -143 -106 -225 -249 -225z" />
    <glyph glyph-name="four.up" horiz-adv-x="592" 
d="M476 690h10v-461h78v-88h-78v-141h-105v141h-365v14zM381 229v221l-187 -221h187z" />
    <glyph glyph-name="five.up" horiz-adv-x="569" 
d="M272 -9c-123 0 -207 60 -254 145l89 50c31 -54 76 -101 165 -101c93 0 144 60 144 140s-46 138 -152 138c-75 0 -135 -28 -174 -63l-7 3v377h393v-95h-296v-151c28 13 62 21 102 21c153 0 245 -97 245 -228c0 -142 -100 -236 -255 -236z" />
    <glyph glyph-name="six.up" horiz-adv-x="577" 
d="M291 -9c-146 0 -250 103 -250 230c0 61 26 119 62 172l195 287h117l-163 -237c17 5 36 9 59 9c127 0 227 -97 227 -227c0 -129 -100 -234 -247 -234zM289 85c89 0 141 65 141 140c0 77 -50 141 -141 141c-88 0 -141 -62 -141 -141c0 -75 53 -140 141 -140z" />
    <glyph glyph-name="seven.up" horiz-adv-x="560" 
d="M99 0l284 585h-351v95h510v-6l-329 -674h-114z" />
    <glyph glyph-name="eight.up" horiz-adv-x="567" 
d="M284 -9c-143 0 -244 85 -244 209c0 82 49 137 119 166c-49 26 -88 71 -88 142c0 104 96 181 213 181s211 -77 211 -181c0 -71 -39 -116 -88 -142c70 -29 120 -84 120 -166c0 -124 -99 -209 -243 -209zM284 86c80 0 134 48 134 117s-54 118 -134 118
c-79 0 -135 -49 -135 -118c0 -72 56 -117 135 -117zM284 403c62 0 105 43 105 98c0 57 -43 97 -105 97c-63 0 -106 -40 -106 -97c0 -55 43 -98 106 -98z" />
    <glyph glyph-name="nine.up" horiz-adv-x="581" 
d="M179 0l150 233c-18 -5 -38 -9 -61 -9c-133 0 -229 99 -229 229c0 129 102 236 250 236c150 0 251 -106 251 -233c0 -58 -31 -119 -70 -180l-176 -276h-115zM290 310c90 0 142 68 142 143c0 77 -52 142 -142 142c-91 0 -143 -67 -143 -142c0 -76 50 -143 143 -143z" />
    <glyph glyph-name="percent.up" horiz-adv-x="729" 
d="M182 372c-85 0 -161 66 -161 158s76 158 161 158c86 0 162 -66 162 -158s-76 -158 -162 -158zM182 457c37 0 69 30 69 73c0 44 -32 73 -69 73s-68 -29 -68 -73c0 -43 31 -73 68 -73zM101 0l423 680h104l-423 -680h-104zM547 -9c-86 0 -162 67 -162 158
c0 92 76 158 162 158c85 0 161 -66 161 -158c0 -91 -76 -158 -161 -158zM547 76c37 0 68 30 68 73c0 44 -31 73 -68 73s-69 -29 -69 -73c0 -43 32 -73 69 -73z" />
    <glyph glyph-name="perthousand.up" horiz-adv-x="1084" 
d="M182 372c-85 0 -161 66 -161 158s76 158 161 158c86 0 162 -66 162 -158s-76 -158 -162 -158zM182 457c37 0 69 30 69 73c0 44 -32 73 -69 73s-68 -29 -68 -73c0 -43 31 -73 68 -73zM101 0l423 680h104l-423 -680h-104zM547 -9c-86 0 -162 67 -162 158
c0 92 76 158 162 158c85 0 161 -66 161 -158c0 -91 -76 -158 -161 -158zM547 76c37 0 68 30 68 73c0 44 -31 73 -68 73s-69 -29 -69 -73c0 -43 32 -73 69 -73zM902 -9c-86 0 -162 67 -162 158c0 92 76 158 162 158c85 0 161 -66 161 -158c0 -91 -76 -158 -161 -158zM902 76
c37 0 68 30 68 73c0 44 -31 73 -68 73s-69 -29 -69 -73c0 -43 32 -73 69 -73z" />
    <glyph glyph-name="fraction.up" horiz-adv-x="443" 
d="M-35 0l408 680h105l-408 -680h-105z" />
    <glyph glyph-name="plus.up" horiz-adv-x="421" 
d="M257 274v-134h-93v134h-128v90h128v134h93v-134h128v-90h-128z" />
    <glyph glyph-name="minus.up" horiz-adv-x="421" 
d="M385 274h-349v90h349v-90z" />
    <glyph glyph-name="multiply.up" horiz-adv-x="379" 
d="M246 305l103 -102l-57 -57l-103 102l-102 -102l-57 57l102 102l-102 102l57 57l102 -102l102 102l57 -57z" />
    <glyph glyph-name="divide.up" horiz-adv-x="421" 
d="M211 404c-35 0 -67 28 -67 67s32 67 67 67s67 -28 67 -67s-32 -67 -67 -67zM211 100c-35 0 -67 28 -67 67s32 67 67 67s67 -28 67 -67s-32 -67 -67 -67zM385 274h-349v90h349v-90z" />
    <glyph glyph-name="equal.up" horiz-adv-x="421" 
d="M36 322v87h349v-87h-349zM36 184v87h349v-87h-349z" />
    <glyph glyph-name="less.up" horiz-adv-x="378" 
d="M339 103l-317 189v4l317 187v-97l-158 -93l158 -93v-97z" />
    <glyph glyph-name="greater.up" horiz-adv-x="378" 
d="M39 483l317 -189v-4l-317 -187v97l158 93l-158 93v97z" />
    <glyph glyph-name="degree.up" horiz-adv-x="314" 
d="M157 441c-72 0 -130 56 -130 124c0 70 58 124 130 124s130 -54 130 -124c0 -68 -58 -124 -130 -124zM157 508c32 0 55 24 55 57s-23 57 -55 57s-55 -24 -55 -57s23 -57 55 -57z" />
    <glyph glyph-name="ordfeminine.up" horiz-adv-x="359" 
d="M229 558c-1 40 -20 54 -54 54c-41 0 -62 -18 -77 -34l-55 51c26 31 62 60 143 60c73 0 136 -41 136 -136v-180h-93v28c-21 -24 -51 -36 -87 -36c-62 0 -114 31 -114 103c0 60 53 90 121 90h80zM229 496h-76c-20 0 -33 -13 -33 -29s12 -28 38 -28c41 0 71 20 71 45v12z
" />
    <glyph glyph-name="ordmasculine.up" horiz-adv-x="403" 
d="M203 365c-95 0 -170 68 -170 162c0 93 75 162 170 162c94 0 170 -69 170 -162c0 -94 -76 -162 -170 -162zM203 443c45 0 74 34 74 84c0 49 -29 83 -74 83c-46 0 -74 -34 -74 -83c0 -50 28 -84 74 -84z" />
    <glyph glyph-name="comma.up" horiz-adv-x="212" 
d="M40 -96l35 97c-23 11 -39 34 -39 63c0 41 33 70 70 70s70 -29 70 -70c0 -25 -12 -45 -26 -68l-55 -92h-55z" />
    <glyph glyph-name="hyphen.up" horiz-adv-x="262" 
d="M39 272v91h184v-91h-184z" />
    <glyph glyph-name="endash.up" horiz-adv-x="441" 
d="M39 269v95h363v-95h-363z" />
    <glyph glyph-name="emdash.up" horiz-adv-x="721" 
d="M39 269v95h643v-95h-643z" />
    <glyph glyph-name="parenleft.up" horiz-adv-x="306" 
d="M224 -104c-87 87 -178 222 -178 428c0 205 91 341 178 428l62 -51c-79 -94 -132 -209 -132 -377s53 -283 132 -377z" />
    <glyph glyph-name="parenright.up" horiz-adv-x="306" 
d="M82 -104l-62 51c79 94 132 209 132 377s-53 283 -132 377l62 51c87 -87 178 -222 178 -428c0 -205 -91 -341 -178 -428z" />
    <glyph glyph-name="at.up" horiz-adv-x="773" 
d="M407 -24c-220 0 -382 146 -382 356s173 356 368 356c206 0 354 -136 354 -329c0 -140 -64 -206 -154 -206c-59 0 -97 20 -118 62c-28 -45 -66 -60 -118 -60c-85 0 -154 72 -154 170c0 99 69 172 154 172c49 0 76 -18 94 -45v36h101v-203c0 -39 16 -54 43 -54
c33 0 64 39 64 126c0 162 -104 250 -269 250c-160 0 -269 -113 -269 -275s109 -275 283 -275c49 0 99 8 140 29l40 -71c-50 -29 -111 -39 -177 -39zM380 242c47 0 72 32 72 83c0 52 -25 85 -72 85c-46 0 -71 -33 -71 -85c0 -51 25 -83 71 -83z" />
    <glyph glyph-name="section.up" horiz-adv-x="564" 
d="M126 405c-24 32 -38 70 -38 113c0 98 83 171 195 171c94 0 148 -41 185 -100l-83 -57c-28 47 -61 64 -102 64c-56 0 -85 -33 -85 -74s19 -71 69 -92l119 -51c98 -42 143 -97 143 -180c0 -56 -38 -97 -85 -124c22 -29 33 -62 33 -100c0 -88 -73 -155 -206 -155
c-91 0 -181 49 -215 107l76 60c29 -38 69 -74 139 -74c63 0 96 26 96 66c0 39 -20 54 -87 82l-111 47c-91 38 -134 97 -134 165c0 72 44 110 91 132zM382 130c28 13 44 33 44 62c0 43 -29 65 -84 89l-119 51c-15 6 -29 14 -42 23c-26 -14 -43 -32 -43 -68
c0 -40 26 -60 74 -80l111 -47c22 -9 42 -20 59 -30z" />
    <glyph glyph-name="numbersign.up" horiz-adv-x="508" 
d="M136 498h-65v82h86l25 100h89l-25 -100h83l25 100h89l-25 -100h66v-82h-87l-26 -103h66v-82h-87l-24 -94h-89l24 94h-83l-24 -94h-89l24 94h-65v82h86zM308 498h-83l-26 -103h83z" />
    <glyph glyph-name="copyright.up" horiz-adv-x="786" 
d="M393 -8c-188 0 -349 147 -349 348s161 348 349 348s349 -147 349 -348s-161 -348 -349 -348zM393 46c161 0 292 125 292 294s-131 294 -292 294s-292 -125 -292 -294s131 -294 292 -294zM395 127c-117 0 -216 89 -216 213s99 215 216 215c75 0 129 -29 166 -82l-79 -63
c-21 28 -42 45 -83 45c-63 0 -108 -48 -108 -115s45 -113 108 -113c47 0 70 21 89 46l81 -59c-36 -54 -94 -87 -174 -87z" />
    </font>
</defs>
</svg>
